<?xml version="1.0" encoding="UTF-8" standalone="no"?>
<!-- Created with Inkscape (http://www.inkscape.org/) -->

<svg
   xmlns:dc="http://purl.org/dc/elements/1.1/"
   xmlns:cc="http://creativecommons.org/ns#"
   xmlns:rdf="http://www.w3.org/1999/02/22-rdf-syntax-ns#"
   xmlns:svg="http://www.w3.org/2000/svg"
   xmlns="http://www.w3.org/2000/svg"
   xmlns:sodipodi="http://sodipodi.sourceforge.net/DTD/sodipodi-0.dtd"
   xmlns:inkscape="http://www.inkscape.org/namespaces/inkscape"
   id="svg2"
   version="1.1"
   inkscape:version="0.48.4 r9939"
   width="554.125"
   height="361.95447"
   xml:space="preserve"
   sodipodi:docname="ChicasLogo4NewRedOutlines.svg"><metadata
     id="metadata8"><rdf:RDF><cc:Work
         rdf:about=""><dc:format>image/svg+xml</dc:format><dc:type
           rdf:resource="http://purl.org/dc/dcmitype/StillImage" /><dc:title></dc:title></cc:Work></rdf:RDF></metadata><defs
     id="defs6"><clipPath
       clipPathUnits="userSpaceOnUse"
       id="clipPath16"><path
         d="m 0,841.89 595.276,0 L 595.276,0 0,0 0,841.89 z"
         id="path18"
         inkscape:connector-curvature="0" /></clipPath><clipPath
       clipPathUnits="userSpaceOnUse"
       id="clipPath144"><path
         d="m 0,841.89 595.276,0 L 595.276,0 0,0 0,841.89 z"
         id="path146"
         inkscape:connector-curvature="0" /></clipPath><clipPath
       clipPathUnits="userSpaceOnUse"
       id="clipPath170"><path
         d="m 0,841.89 595.276,0 L 595.276,0 0,0 0,841.89 z"
         id="path172"
         inkscape:connector-curvature="0" /></clipPath><clipPath
       clipPathUnits="userSpaceOnUse"
       id="clipPath196"><path
         d="m 0,841.89 595.276,0 L 595.276,0 0,0 0,841.89 z"
         id="path198"
         inkscape:connector-curvature="0" /></clipPath></defs><sodipodi:namedview
     pagecolor="#ffffff"
     bordercolor="#666666"
     borderopacity="1"
     objecttolerance="10"
     gridtolerance="10"
     guidetolerance="10"
     inkscape:pageopacity="0"
     inkscape:pageshadow="2"
     inkscape:window-width="1138"
     inkscape:window-height="817"
     id="namedview4"
     showgrid="false"
     inkscape:zoom="0.90097469"
     inkscape:cx="361.0655"
     inkscape:cy="272.17666"
     inkscape:window-x="0"
     inkscape:window-y="0"
     inkscape:window-maximized="0"
     inkscape:current-layer="g10"
     fit-margin-top="50"
     fit-margin-left="50"
     fit-margin-right="50"
     fit-margin-bottom="50"
     inkscape:document-units="in" /><g
     id="g10"
     inkscape:groupmode="layer"
     inkscape:label="ChicasLogo4NewRedOutlines"
     transform="matrix(1.25,0,0,-1.25,-28.6375,894.09697)"><g
       id="colour_lettering"
       inkscape:label="#g12"
       transform="matrix(0.8356255,0,0,0.8356255,10.3408,63.23705)"><title
         id="title3314">CHICAS Logo, colour, with lettering</title><g
         id="g14"
         clip-path="url(#clipPath16)"><path
           d="m 189.811,661.093 c -0.396,0.451 -0.88,0.693 -1.474,0.693 -0.968,0 -1.716,-0.858 -1.716,-1.804 0,-1.056 0.737,-1.826 1.782,-1.826 0.572,0 1.034,0.264 1.408,0.682 l 0,-1.265 c -0.451,-0.242 -0.902,-0.341 -1.419,-0.341 -1.518,0 -2.761,1.166 -2.761,2.706 0,1.595 1.232,2.772 2.816,2.772 0.462,0 0.968,-0.109 1.364,-0.341 l 0,-1.276 z"
           style="fill:#231f20;fill-opacity:1;fill-rule:nonzero;stroke:none"
           id="path20"
           inkscape:connector-curvature="0" /><path
           d="m 191.406,659.971 c 0,-0.968 0.781,-1.793 1.76,-1.793 0.979,0 1.76,0.825 1.76,1.793 0,0.979 -0.781,1.794 -1.76,1.794 -0.979,0 -1.76,-0.815 -1.76,-1.794 m 4.51,0 c 0,-1.551 -1.21,-2.739 -2.75,-2.739 -1.54,0 -2.75,1.188 -2.75,2.739 0,1.551 1.21,2.739 2.75,2.739 1.54,0 2.75,-1.188 2.75,-2.739"
           style="fill:#231f20;fill-opacity:1;fill-rule:nonzero;stroke:none"
           id="path22"
           inkscape:connector-curvature="0" /><path
           d="m 197.775,661.907 0.022,0 c 0.286,0.451 0.803,0.803 1.364,0.803 0.671,0 1.155,-0.341 1.485,-0.913 0.319,0.551 0.935,0.913 1.583,0.913 1.354,0 1.706,-1.056 1.706,-2.222 l 0,-3.08 -0.99,0 0,2.915 c 0,0.66 -0.088,1.507 -0.957,1.507 -1.056,0 -1.134,-1.1 -1.134,-1.892 l 0,-2.53 -0.989,0 0,2.728 c 0,0.672 -0.033,1.694 -0.946,1.694 -1.056,0 -1.144,-1.089 -1.144,-1.892 l 0,-2.53 -0.99,0 0,5.149 0.99,0 0,-0.65 z"
           style="fill:#231f20;fill-opacity:1;fill-rule:nonzero;stroke:none"
           id="path24"
           inkscape:connector-curvature="0" /><path
           d="m 209.413,659.982 c 0,1.001 -0.605,1.848 -1.672,1.848 -1.023,0 -1.628,-0.891 -1.628,-1.848 0,-0.967 0.583,-1.87 1.628,-1.87 1.078,0 1.672,0.858 1.672,1.87 m -4.235,6.974 0.99,0 0,-5.258 0.022,0 c 0.407,0.616 1.023,1.012 1.793,1.012 1.485,0 2.42,-1.287 2.42,-2.694 0,-1.475 -0.88,-2.784 -2.464,-2.784 -0.726,0 -1.353,0.396 -1.749,0.979 l -0.022,0 0,-0.803 -0.99,0 0,9.548 z"
           style="fill:#231f20;fill-opacity:1;fill-rule:nonzero;stroke:none"
           id="path26"
           inkscape:connector-curvature="0" /><path
           d="m 212.581,657.408 -0.99,0 0,5.148 0.99,0 0,-5.148 z m 0.187,7.502 c 0,-0.374 -0.309,-0.671 -0.683,-0.671 -0.374,0 -0.682,0.297 -0.682,0.671 0,0.385 0.308,0.694 0.682,0.694 0.374,0 0.683,-0.309 0.683,-0.694"
           style="fill:#231f20;fill-opacity:1;fill-rule:nonzero;stroke:none"
           id="path28"
           inkscape:connector-curvature="0" /><path
           d="m 215.154,661.863 0.022,0 c 0.308,0.55 0.925,0.847 1.552,0.847 1.451,0 1.825,-0.979 1.825,-2.232 l 0,-3.07 -0.99,0 0,2.948 c 0,0.88 -0.121,1.474 -1.133,1.474 -1.276,0 -1.276,-1.122 -1.276,-2.057 l 0,-2.365 -0.989,0 0,5.149 0.989,0 0,-0.694 z"
           style="fill:#231f20;fill-opacity:1;fill-rule:nonzero;stroke:none"
           id="path30"
           inkscape:connector-curvature="0" /><path
           d="m 221.127,657.408 -0.99,0 0,5.148 0.99,0 0,-5.148 z m 0.187,7.502 c 0,-0.374 -0.308,-0.671 -0.682,-0.671 -0.374,0 -0.682,0.297 -0.682,0.671 0,0.385 0.308,0.694 0.682,0.694 0.374,0 0.682,-0.309 0.682,-0.694"
           style="fill:#231f20;fill-opacity:1;fill-rule:nonzero;stroke:none"
           id="path32"
           inkscape:connector-curvature="0" /><path
           d="m 223.701,661.863 0.022,0 c 0.308,0.55 0.924,0.847 1.551,0.847 1.452,0 1.826,-0.979 1.826,-2.232 l 0,-3.07 -0.99,0 0,2.948 c 0,0.88 -0.121,1.474 -1.133,1.474 -1.276,0 -1.276,-1.122 -1.276,-2.057 l 0,-2.365 -0.99,0 0,5.149 0.99,0 0,-0.694 z"
           style="fill:#231f20;fill-opacity:1;fill-rule:nonzero;stroke:none"
           id="path34"
           inkscape:connector-curvature="0" /><path
           d="m 232.347,659.982 c 0,1.001 -0.605,1.848 -1.672,1.848 -1.023,0 -1.628,-0.891 -1.628,-1.848 0,-0.967 0.583,-1.87 1.628,-1.87 1.078,0 1.672,0.858 1.672,1.87 m 0.935,-2.475 c 0,-1.771 -0.506,-3.047 -2.508,-3.047 -1.43,0 -2.464,0.88 -2.486,2.332 l 0.99,0 c 0,-0.924 0.638,-1.452 1.54,-1.452 1.221,0 1.474,0.836 1.474,1.892 l 0,0.979 -0.022,0 c -0.396,-0.583 -1.023,-0.979 -1.749,-0.979 -1.584,0 -2.464,1.309 -2.464,2.784 0,1.407 0.935,2.694 2.42,2.694 0.77,0 1.386,-0.396 1.793,-1.034 l 0.022,0 0,0.881 0.99,0 0,-5.05 z"
           style="fill:#231f20;fill-opacity:1;fill-rule:nonzero;stroke:none"
           id="path36"
           inkscape:connector-curvature="0" /><path
           d="m 147.989,653.756 0,-5.093 0.022,0 c 0.308,0.55 0.925,0.847 1.552,0.847 1.451,0 1.825,-0.979 1.825,-2.233 l 0,-3.069 -0.99,0 0,2.948 c 0,0.88 -0.121,1.474 -1.133,1.474 -1.276,0 -1.276,-1.122 -1.276,-2.057 l 0,-2.365 -0.989,0 0,9.548 0.989,0 z"
           style="fill:#231f20;fill-opacity:1;fill-rule:nonzero;stroke:none"
           id="path38"
           inkscape:connector-curvature="0" /><path
           d="m 156.283,647.365 c -0.121,0.77 -0.627,1.287 -1.419,1.287 -0.77,0 -1.342,-0.55 -1.463,-1.287 l 2.882,0 z m -2.937,-0.748 c 0.011,-0.88 0.605,-1.705 1.551,-1.705 0.759,0 1.166,0.385 1.541,1.001 l 0.835,-0.473 c -0.484,-0.891 -1.386,-1.408 -2.387,-1.408 -1.573,0 -2.53,1.188 -2.53,2.706 0,1.584 0.847,2.772 2.508,2.772 1.639,0 2.409,-1.21 2.409,-2.739 l 0,-0.154 -3.927,0 z"
           style="fill:#231f20;fill-opacity:1;fill-rule:nonzero;stroke:none"
           id="path40"
           inkscape:connector-curvature="0" /><path
           d="m 162.014,646.782 c 0,1.001 -0.605,1.848 -1.672,1.848 -1.023,0 -1.628,-0.891 -1.628,-1.848 0,-0.968 0.583,-1.87 1.628,-1.87 1.078,0 1.672,0.858 1.672,1.87 m 0.935,-2.574 -0.99,0 0,0.803 -0.022,0 c -0.396,-0.583 -1.012,-0.979 -1.749,-0.979 -1.573,0 -2.464,1.309 -2.464,2.783 0,1.408 0.935,2.695 2.431,2.695 0.759,0 1.375,-0.396 1.782,-1.012 l 0.022,0 0,0.858 0.99,0 0,-5.148 z"
           style="fill:#231f20;fill-opacity:1;fill-rule:nonzero;stroke:none"
           id="path42"
           inkscape:connector-curvature="0" /><path
           d="m 165.27,644.208 -0.99,0 0,9.548 0.99,0 0,-9.548 z"
           style="fill:#231f20;fill-opacity:1;fill-rule:nonzero;stroke:none"
           id="path44"
           inkscape:connector-curvature="0" /><path
           d="m 167.811,644.208 -0.99,0 0,4.224 -0.539,0 0,0.924 0.539,0 0,1.969 0.99,0 0,-1.969 0.968,0 0,-0.924 -0.968,0 0,-4.224 z"
           style="fill:#231f20;fill-opacity:1;fill-rule:nonzero;stroke:none"
           id="path46"
           inkscape:connector-curvature="0" /><path
           d="m 170.308,653.756 0,-5.093 0.022,0 c 0.308,0.55 0.924,0.847 1.551,0.847 1.452,0 1.826,-0.979 1.826,-2.233 l 0,-3.069 -0.99,0 0,2.948 c 0,0.88 -0.121,1.474 -1.134,1.474 -1.275,0 -1.275,-1.122 -1.275,-2.057 l 0,-2.365 -0.99,0 0,9.548 0.99,0 z"
           style="fill:#231f20;fill-opacity:1;fill-rule:nonzero;stroke:none"
           id="path48"
           inkscape:connector-curvature="0" /><path
           d="m 179.46,644.208 -0.99,0 0,5.148 0.99,0 0,-5.148 z m 0.187,7.502 c 0,-0.374 -0.308,-0.671 -0.682,-0.671 -0.374,0 -0.682,0.297 -0.682,0.671 0,0.385 0.308,0.693 0.682,0.693 0.374,0 0.682,-0.308 0.682,-0.693"
           style="fill:#231f20;fill-opacity:1;fill-rule:nonzero;stroke:none"
           id="path50"
           inkscape:connector-curvature="0" /><path
           d="m 182.034,648.663 0.022,0 c 0.308,0.55 0.924,0.847 1.551,0.847 1.452,0 1.826,-0.979 1.826,-2.233 l 0,-3.069 -0.99,0 0,2.948 c 0,0.88 -0.121,1.474 -1.133,1.474 -1.276,0 -1.276,-1.122 -1.276,-2.057 l 0,-2.365 -0.99,0 0,5.148 0.99,0 0,-0.693 z"
           style="fill:#231f20;fill-opacity:1;fill-rule:nonzero;stroke:none"
           id="path52"
           inkscape:connector-curvature="0" /><path
           d="m 189.349,652.755 c -0.198,0.088 -0.451,0.209 -0.66,0.209 -0.704,0 -0.704,-0.891 -0.704,-1.397 l 0,-2.211 1.364,0 0,-0.924 -1.364,0 0,-4.224 -0.99,0 0,4.224 -0.451,0 0,0.924 0.451,0 0,2.508 c 0,1.122 0.385,2.024 1.661,2.024 0.242,0 0.473,-0.044 0.693,-0.132 l 0,-1.001 z"
           style="fill:#231f20;fill-opacity:1;fill-rule:nonzero;stroke:none"
           id="path54"
           inkscape:connector-curvature="0" /><path
           d="m 190.35,646.771 c 0,-0.968 0.781,-1.793 1.76,-1.793 0.978,0 1.76,0.825 1.76,1.793 0,0.979 -0.782,1.793 -1.76,1.793 -0.979,0 -1.76,-0.814 -1.76,-1.793 m 4.509,0 c 0,-1.551 -1.21,-2.739 -2.749,-2.739 -1.54,0 -2.75,1.188 -2.75,2.739 0,1.551 1.21,2.739 2.75,2.739 1.539,0 2.749,-1.188 2.749,-2.739"
           style="fill:#231f20;fill-opacity:1;fill-rule:nonzero;stroke:none"
           id="path56"
           inkscape:connector-curvature="0" /><path
           d="m 196.817,648.52 0.034,0 c 0.242,0.605 0.748,0.99 1.408,0.99 0.285,0 0.572,-0.099 0.814,-0.253 l -0.451,-0.902 c -0.176,0.154 -0.374,0.209 -0.605,0.209 -1.067,0 -1.2,-0.99 -1.2,-1.826 l 0,-2.53 -0.989,0 0,5.148 0.989,0 0,-0.836 z"
           style="fill:#231f20;fill-opacity:1;fill-rule:nonzero;stroke:none"
           id="path58"
           inkscape:connector-curvature="0" /><path
           d="m 200.667,648.707 0.022,0 c 0.286,0.451 0.803,0.803 1.364,0.803 0.671,0 1.155,-0.341 1.485,-0.913 0.319,0.549 0.935,0.913 1.584,0.913 1.353,0 1.705,-1.056 1.705,-2.222 l 0,-3.08 -0.99,0 0,2.915 c 0,0.66 -0.087,1.507 -0.957,1.507 -1.056,0 -1.133,-1.1 -1.133,-1.892 l 0,-2.53 -0.99,0 0,2.728 c 0,0.671 -0.033,1.694 -0.945,1.694 -1.057,0 -1.145,-1.089 -1.145,-1.892 l 0,-2.53 -0.99,0 0,5.148 0.99,0 0,-0.649 z"
           style="fill:#231f20;fill-opacity:1;fill-rule:nonzero;stroke:none"
           id="path60"
           inkscape:connector-curvature="0" /><path
           d="m 212.042,646.782 c 0,1.001 -0.605,1.848 -1.673,1.848 -1.023,0 -1.628,-0.891 -1.628,-1.848 0,-0.968 0.583,-1.87 1.628,-1.87 1.078,0 1.673,0.858 1.673,1.87 m 0.934,-2.574 -0.99,0 0,0.803 -0.022,0 c -0.396,-0.583 -1.012,-0.979 -1.749,-0.979 -1.573,0 -2.464,1.309 -2.464,2.783 0,1.408 0.936,2.695 2.431,2.695 0.759,0 1.375,-0.396 1.782,-1.012 l 0.022,0 0,0.858 0.99,0 0,-5.148 z"
           style="fill:#231f20;fill-opacity:1;fill-rule:nonzero;stroke:none"
           id="path62"
           inkscape:connector-curvature="0" /><path
           d="m 215.396,644.208 -0.989,0 0,4.224 -0.539,0 0,0.924 0.539,0 0,1.969 0.989,0 0,-1.969 0.969,0 0,-0.924 -0.969,0 0,-4.224 z"
           style="fill:#231f20;fill-opacity:1;fill-rule:nonzero;stroke:none"
           id="path64"
           inkscape:connector-curvature="0" /><path
           d="m 218.113,644.208 -0.99,0 0,5.148 0.99,0 0,-5.148 z m 0.187,7.502 c 0,-0.374 -0.308,-0.671 -0.682,-0.671 -0.374,0 -0.682,0.297 -0.682,0.671 0,0.385 0.308,0.693 0.682,0.693 0.374,0 0.682,-0.308 0.682,-0.693"
           style="fill:#231f20;fill-opacity:1;fill-rule:nonzero;stroke:none"
           id="path66"
           inkscape:connector-curvature="0" /><path
           d="m 220.225,646.771 c 0,-0.968 0.781,-1.793 1.76,-1.793 0.979,0 1.76,0.825 1.76,1.793 0,0.979 -0.781,1.793 -1.76,1.793 -0.979,0 -1.76,-0.814 -1.76,-1.793 m 4.51,0 c 0,-1.551 -1.21,-2.739 -2.75,-2.739 -1.54,0 -2.75,1.188 -2.75,2.739 0,1.551 1.21,2.739 2.75,2.739 1.54,0 2.75,-1.188 2.75,-2.739"
           style="fill:#231f20;fill-opacity:1;fill-rule:nonzero;stroke:none"
           id="path68"
           inkscape:connector-curvature="0" /><path
           d="m 226.627,648.663 0.022,0 c 0.308,0.55 0.924,0.847 1.551,0.847 1.452,0 1.826,-0.979 1.826,-2.233 l 0,-3.069 -0.99,0 0,2.948 c 0,0.88 -0.121,1.474 -1.133,1.474 -1.276,0 -1.276,-1.122 -1.276,-2.057 l 0,-2.365 -0.99,0 0,5.148 0.99,0 0,-0.693 z"
           style="fill:#231f20;fill-opacity:1;fill-rule:nonzero;stroke:none"
           id="path70"
           inkscape:connector-curvature="0" /><path
           d="m 233.37,645.176 -1.463,-2.937 -0.605,0.253 1.21,3.025 0.858,-0.341 z"
           style="fill:#231f20;fill-opacity:1;fill-rule:nonzero;stroke:none"
           id="path72"
           inkscape:connector-curvature="0" /><path
           d="m 120.006,634.692 c -0.396,0.452 -0.88,0.694 -1.474,0.694 -0.968,0 -1.716,-0.859 -1.716,-1.804 0,-1.057 0.737,-1.826 1.782,-1.826 0.572,0 1.034,0.264 1.408,0.682 l 0,-1.265 c -0.451,-0.242 -0.902,-0.341 -1.419,-0.341 -1.518,0 -2.761,1.166 -2.761,2.706 0,1.595 1.232,2.772 2.816,2.772 0.462,0 0.968,-0.11 1.364,-0.341 l 0,-1.277 z"
           style="fill:#231f20;fill-opacity:1;fill-rule:nonzero;stroke:none"
           id="path74"
           inkscape:connector-curvature="0" /><path
           d="m 121.601,633.57 c 0,-0.967 0.781,-1.793 1.76,-1.793 0.979,0 1.76,0.826 1.76,1.793 0,0.98 -0.781,1.794 -1.76,1.794 -0.979,0 -1.76,-0.814 -1.76,-1.794 m 4.51,0 c 0,-1.55 -1.21,-2.738 -2.75,-2.738 -1.54,0 -2.75,1.188 -2.75,2.738 0,1.552 1.21,2.74 2.75,2.74 1.54,0 2.75,-1.188 2.75,-2.74"
           style="fill:#231f20;fill-opacity:1;fill-rule:nonzero;stroke:none"
           id="path76"
           inkscape:connector-curvature="0" /><path
           d="m 127.97,635.507 0.022,0 c 0.286,0.451 0.803,0.803 1.364,0.803 0.671,0 1.155,-0.341 1.485,-0.914 0.319,0.551 0.935,0.914 1.584,0.914 1.353,0 1.705,-1.056 1.705,-2.222 l 0,-3.08 -0.99,0 0,2.915 c 0,0.66 -0.088,1.507 -0.957,1.507 -1.056,0 -1.133,-1.1 -1.133,-1.892 l 0,-2.53 -0.99,0 0,2.727 c 0,0.672 -0.033,1.695 -0.946,1.695 -1.056,0 -1.144,-1.089 -1.144,-1.892 l 0,-2.53 -0.99,0 0,5.148 0.99,0 0,-0.649 z"
           style="fill:#231f20;fill-opacity:1;fill-rule:nonzero;stroke:none"
           id="path78"
           inkscape:connector-curvature="0" /><path
           d="m 139.608,633.582 c 0,1.001 -0.605,1.848 -1.672,1.848 -1.023,0 -1.628,-0.891 -1.628,-1.848 0,-0.968 0.583,-1.87 1.628,-1.87 1.078,0 1.672,0.857 1.672,1.87 m -3.245,1.716 0.022,0 c 0.407,0.616 1.023,1.012 1.793,1.012 1.485,0 2.42,-1.288 2.42,-2.695 0,-1.474 -0.88,-2.783 -2.464,-2.783 -0.726,0 -1.353,0.396 -1.749,0.979 l -0.022,0 0,-3.751 -0.99,0 0,8.096 0.99,0 0,-0.858 z"
           style="fill:#231f20;fill-opacity:1;fill-rule:nonzero;stroke:none"
           id="path80"
           inkscape:connector-curvature="0" /><path
           d="m 142.512,636.156 0,-2.849 c 0,-0.826 0.209,-1.551 1.188,-1.551 0.979,0 1.188,0.725 1.188,1.551 l 0,2.849 0.99,0 0,-2.959 c 0,-1.408 -0.66,-2.365 -2.178,-2.365 -1.518,0 -2.178,0.957 -2.178,2.365 l 0,2.959 0.99,0 z"
           style="fill:#231f20;fill-opacity:1;fill-rule:nonzero;stroke:none"
           id="path82"
           inkscape:connector-curvature="0" /><path
           d="m 148.331,631.008 -0.99,0 0,4.223 -0.539,0 0,0.925 0.539,0 0,1.969 0.99,0 0,-1.969 0.968,0 0,-0.925 -0.968,0 0,-4.223 z"
           style="fill:#231f20;fill-opacity:1;fill-rule:nonzero;stroke:none"
           id="path84"
           inkscape:connector-curvature="0" /><path
           d="m 153.732,633.582 c 0,1.001 -0.605,1.848 -1.672,1.848 -1.023,0 -1.628,-0.891 -1.628,-1.848 0,-0.968 0.583,-1.87 1.628,-1.87 1.078,0 1.672,0.857 1.672,1.87 m 0.935,-2.574 -0.99,0 0,0.803 -0.022,0 c -0.396,-0.583 -1.012,-0.979 -1.749,-0.979 -1.573,0 -2.464,1.309 -2.464,2.783 0,1.407 0.935,2.695 2.431,2.695 0.759,0 1.375,-0.396 1.782,-1.012 l 0.022,0 0,0.858 0.99,0 0,-5.148 z"
           style="fill:#231f20;fill-opacity:1;fill-rule:nonzero;stroke:none"
           id="path86"
           inkscape:connector-curvature="0" /><path
           d="m 157.086,631.008 -0.989,0 0,4.223 -0.539,0 0,0.925 0.539,0 0,1.969 0.989,0 0,-1.969 0.969,0 0,-0.925 -0.969,0 0,-4.223 z"
           style="fill:#231f20;fill-opacity:1;fill-rule:nonzero;stroke:none"
           id="path88"
           inkscape:connector-curvature="0" /><path
           d="m 159.804,631.008 -0.99,0 0,5.148 0.99,0 0,-5.148 z m 0.187,7.502 c 0,-0.374 -0.308,-0.671 -0.682,-0.671 -0.374,0 -0.683,0.297 -0.683,0.671 0,0.385 0.309,0.693 0.683,0.693 0.374,0 0.682,-0.308 0.682,-0.693"
           style="fill:#231f20;fill-opacity:1;fill-rule:nonzero;stroke:none"
           id="path90"
           inkscape:connector-curvature="0" /><path
           d="m 161.916,633.57 c 0,-0.967 0.781,-1.793 1.759,-1.793 0.979,0 1.761,0.826 1.761,1.793 0,0.98 -0.782,1.794 -1.761,1.794 -0.978,0 -1.759,-0.814 -1.759,-1.794 m 4.509,0 c 0,-1.55 -1.21,-2.738 -2.75,-2.738 -1.539,0 -2.749,1.188 -2.749,2.738 0,1.552 1.21,2.74 2.749,2.74 1.54,0 2.75,-1.188 2.75,-2.74"
           style="fill:#231f20;fill-opacity:1;fill-rule:nonzero;stroke:none"
           id="path92"
           inkscape:connector-curvature="0" /><path
           d="m 168.317,635.463 0.022,0 c 0.308,0.55 0.925,0.847 1.552,0.847 1.451,0 1.825,-0.979 1.825,-2.233 l 0,-3.069 -0.989,0 0,2.948 c 0,0.88 -0.122,1.474 -1.134,1.474 -1.276,0 -1.276,-1.122 -1.276,-2.057 l 0,-2.365 -0.989,0 0,5.148 0.989,0 0,-0.693 z"
           style="fill:#231f20;fill-opacity:1;fill-rule:nonzero;stroke:none"
           id="path94"
           inkscape:connector-curvature="0" /><path
           d="m 180.153,633.582 c 0,1.001 -0.605,1.848 -1.672,1.848 -1.023,0 -1.628,-0.891 -1.628,-1.848 0,-0.968 0.583,-1.87 1.628,-1.87 1.078,0 1.672,0.857 1.672,1.87 m 0.935,-2.574 -0.99,0 0,0.803 -0.022,0 c -0.396,-0.583 -1.012,-0.979 -1.749,-0.979 -1.573,0 -2.464,1.309 -2.464,2.783 0,1.407 0.935,2.695 2.431,2.695 0.759,0 1.375,-0.396 1.782,-1.012 l 0.022,0 0,0.858 0.99,0 0,-5.148 z"
           style="fill:#231f20;fill-opacity:1;fill-rule:nonzero;stroke:none"
           id="path96"
           inkscape:connector-curvature="0" /><path
           d="m 183.365,635.463 0.022,0 c 0.308,0.55 0.925,0.847 1.551,0.847 1.452,0 1.826,-0.979 1.826,-2.233 l 0,-3.069 -0.99,0 0,2.948 c 0,0.88 -0.121,1.474 -1.133,1.474 -1.276,0 -1.276,-1.122 -1.276,-2.057 l 0,-2.365 -0.99,0 0,5.148 0.99,0 0,-0.693 z"
           style="fill:#231f20;fill-opacity:1;fill-rule:nonzero;stroke:none"
           id="path98"
           inkscape:connector-curvature="0" /><path
           d="m 192.022,633.582 c 0,1.001 -0.605,1.848 -1.672,1.848 -1.023,0 -1.628,-0.891 -1.628,-1.848 0,-0.968 0.583,-1.87 1.628,-1.87 1.078,0 1.672,0.857 1.672,1.87 m -0.055,-1.771 -0.022,0 c -0.396,-0.583 -1.023,-0.979 -1.749,-0.979 -1.584,0 -2.464,1.309 -2.464,2.783 0,1.407 0.935,2.695 2.42,2.695 0.77,0 1.386,-0.396 1.793,-1.012 l 0.022,0 0,5.258 0.99,0 0,-9.548 -0.99,0 0,0.803 z"
           style="fill:#231f20;fill-opacity:1;fill-rule:nonzero;stroke:none"
           id="path100"
           inkscape:connector-curvature="0" /><path
           d="m 199.491,634.979 c -0.121,0.252 -0.374,0.451 -0.66,0.451 -0.275,0 -0.539,-0.22 -0.539,-0.506 0,-0.451 0.594,-0.65 1.199,-0.924 0.605,-0.275 1.188,-0.649 1.188,-1.463 0,-0.979 -0.814,-1.705 -1.771,-1.705 -0.748,0 -1.507,0.429 -1.782,1.154 l 0.847,0.386 c 0.209,-0.386 0.462,-0.66 0.935,-0.66 0.418,0 0.781,0.286 0.781,0.726 0,0.275 -0.132,0.407 -0.363,0.561 l -0.968,0.517 c -0.572,0.308 -0.99,0.593 -0.99,1.297 0,0.836 0.682,1.497 1.518,1.497 0.627,0 1.133,-0.341 1.408,-0.902 l -0.803,-0.429 z"
           style="fill:#231f20;fill-opacity:1;fill-rule:nonzero;stroke:none"
           id="path102"
           inkscape:connector-curvature="0" /><path
           d="m 202.78,631.008 -0.99,0 0,4.223 -0.539,0 0,0.925 0.539,0 0,1.969 0.99,0 0,-1.969 0.968,0 0,-0.925 -0.968,0 0,-4.223 z"
           style="fill:#231f20;fill-opacity:1;fill-rule:nonzero;stroke:none"
           id="path104"
           inkscape:connector-curvature="0" /><path
           d="m 208.181,633.582 c 0,1.001 -0.605,1.848 -1.672,1.848 -1.023,0 -1.628,-0.891 -1.628,-1.848 0,-0.968 0.583,-1.87 1.628,-1.87 1.078,0 1.672,0.857 1.672,1.87 m 0.935,-2.574 -0.99,0 0,0.803 -0.022,0 c -0.396,-0.583 -1.012,-0.979 -1.749,-0.979 -1.573,0 -2.464,1.309 -2.464,2.783 0,1.407 0.935,2.695 2.431,2.695 0.759,0 1.375,-0.396 1.782,-1.012 l 0.022,0 0,0.858 0.99,0 0,-5.148 z"
           style="fill:#231f20;fill-opacity:1;fill-rule:nonzero;stroke:none"
           id="path106"
           inkscape:connector-curvature="0" /><path
           d="m 211.536,631.008 -0.99,0 0,4.223 -0.539,0 0,0.925 0.539,0 0,1.969 0.99,0 0,-1.969 0.968,0 0,-0.925 -0.968,0 0,-4.223 z"
           style="fill:#231f20;fill-opacity:1;fill-rule:nonzero;stroke:none"
           id="path108"
           inkscape:connector-curvature="0" /><path
           d="m 214.253,631.008 -0.99,0 0,5.148 0.99,0 0,-5.148 z m 0.187,7.502 c 0,-0.374 -0.308,-0.671 -0.682,-0.671 -0.374,0 -0.682,0.297 -0.682,0.671 0,0.385 0.308,0.693 0.682,0.693 0.374,0 0.682,-0.308 0.682,-0.693"
           style="fill:#231f20;fill-opacity:1;fill-rule:nonzero;stroke:none"
           id="path110"
           inkscape:connector-curvature="0" /><path
           d="m 217.905,634.979 c -0.121,0.252 -0.374,0.451 -0.66,0.451 -0.275,0 -0.539,-0.22 -0.539,-0.506 0,-0.451 0.594,-0.65 1.199,-0.924 0.605,-0.275 1.188,-0.649 1.188,-1.463 0,-0.979 -0.814,-1.705 -1.771,-1.705 -0.748,0 -1.507,0.429 -1.782,1.154 l 0.847,0.386 c 0.209,-0.386 0.462,-0.66 0.935,-0.66 0.418,0 0.781,0.286 0.781,0.726 0,0.275 -0.132,0.407 -0.363,0.561 l -0.968,0.517 c -0.572,0.308 -0.99,0.593 -0.99,1.297 0,0.836 0.682,1.497 1.518,1.497 0.627,0 1.133,-0.341 1.408,-0.902 l -0.803,-0.429 z"
           style="fill:#231f20;fill-opacity:1;fill-rule:nonzero;stroke:none"
           id="path112"
           inkscape:connector-curvature="0" /><path
           d="m 221.193,631.008 -0.989,0 0,4.223 -0.539,0 0,0.925 0.539,0 0,1.969 0.989,0 0,-1.969 0.969,0 0,-0.925 -0.969,0 0,-4.223 z"
           style="fill:#231f20;fill-opacity:1;fill-rule:nonzero;stroke:none"
           id="path114"
           inkscape:connector-curvature="0" /><path
           d="m 223.911,631.008 -0.99,0 0,5.148 0.99,0 0,-5.148 z m 0.187,7.502 c 0,-0.374 -0.308,-0.671 -0.682,-0.671 -0.374,0 -0.683,0.297 -0.683,0.671 0,0.385 0.309,0.693 0.683,0.693 0.374,0 0.682,-0.308 0.682,-0.693"
           style="fill:#231f20;fill-opacity:1;fill-rule:nonzero;stroke:none"
           id="path116"
           inkscape:connector-curvature="0" /><path
           d="m 229.278,634.692 c -0.396,0.452 -0.88,0.694 -1.473,0.694 -0.969,0 -1.717,-0.859 -1.717,-1.804 0,-1.057 0.738,-1.826 1.783,-1.826 0.571,0 1.033,0.264 1.407,0.682 l 0,-1.265 c -0.45,-0.242 -0.902,-0.341 -1.419,-0.341 -1.518,0 -2.76,1.166 -2.76,2.706 0,1.595 1.232,2.772 2.816,2.772 0.461,0 0.967,-0.11 1.363,-0.341 l 0,-1.277 z"
           style="fill:#231f20;fill-opacity:1;fill-rule:nonzero;stroke:none"
           id="path118"
           inkscape:connector-curvature="0" /><path
           d="m 232.414,634.979 c -0.122,0.252 -0.374,0.451 -0.661,0.451 -0.274,0 -0.539,-0.22 -0.539,-0.506 0,-0.451 0.595,-0.65 1.2,-0.924 0.605,-0.275 1.188,-0.649 1.188,-1.463 0,-0.979 -0.814,-1.705 -1.771,-1.705 -0.748,0 -1.507,0.429 -1.783,1.154 l 0.848,0.386 c 0.208,-0.386 0.461,-0.66 0.935,-0.66 0.418,0 0.78,0.286 0.78,0.726 0,0.275 -0.132,0.407 -0.362,0.561 l -0.968,0.517 c -0.573,0.308 -0.99,0.593 -0.99,1.297 0,0.836 0.682,1.497 1.518,1.497 0.627,0 1.132,-0.341 1.407,-0.902 l -0.802,-0.429 z"
           style="fill:#231f20;fill-opacity:1;fill-rule:nonzero;stroke:none"
           id="path120"
           inkscape:connector-curvature="0" /><path
           d="m 100.022,701.854 c -2.592,2.303 -6.144,3.551 -9.552,3.551 -8.112,0 -14.304,-6.768 -14.304,-14.783 0,-7.921 6.144,-14.689 14.208,-14.689 3.552,0 6.96,1.344 9.648,3.744 l 0,-5.328 c -2.784,-1.632 -6.336,-2.544 -9.504,-2.544 -10.32,0 -18.864,8.208 -18.864,18.673 0,10.704 8.592,19.056 19.248,19.056 3.168,0 6.384,-0.768 9.12,-2.449 l 0,-5.231 z"
           style="fill:#b5121b;fill-opacity:1;fill-rule:nonzero;stroke:none"
           id="path122"
           inkscape:connector-curvature="0" /><path
           d="m 126.758,694.173 0,14.593 4.512,0 0,-36.193 -4.512,0 0,17.376 -17.233,0 0,-17.376 -4.511,0 0,36.193 4.511,0 0,-14.593 17.233,0 z"
           style="fill:#b5121b;fill-opacity:1;fill-rule:nonzero;stroke:none"
           id="path124"
           inkscape:connector-curvature="0" /><path
           d="m 142.165,672.573 -4.512,0 0,36.192 4.512,0 0,-36.192 z"
           style="fill:#b5121b;fill-opacity:1;fill-rule:nonzero;stroke:none"
           id="path126"
           inkscape:connector-curvature="0" /><path
           d="m 175.285,701.854 c -2.592,2.303 -6.144,3.551 -9.552,3.551 -8.112,0 -14.304,-6.768 -14.304,-14.783 0,-7.921 6.144,-14.689 14.208,-14.689 3.551,0 6.96,1.344 9.648,3.744 l 0,-5.328 c -2.784,-1.632 -6.336,-2.544 -9.504,-2.544 -10.321,0 -18.864,8.208 -18.864,18.673 0,10.704 8.592,19.056 19.248,19.056 3.168,0 6.384,-0.768 9.12,-2.449 l 0,-5.231 z"
           style="fill:#b5121b;fill-opacity:1;fill-rule:nonzero;stroke:none"
           id="path128"
           inkscape:connector-curvature="0" /><path
           d="m 194.101,700.414 -6.433,-14.641 12.865,0 -6.432,14.641 z m -8.304,-18.768 -4.129,-9.073 -4.847,0 17.28,37.729 17.28,-37.729 -4.848,0 -4.128,9.073 -16.608,0 z"
           style="fill:#b5121b;fill-opacity:1;fill-rule:nonzero;stroke:none"
           id="path130"
           inkscape:connector-curvature="0" /><path
           d="m 230.484,701.901 c -1.344,2.256 -3.072,3.409 -5.808,3.409 -2.88,0 -6.048,-1.969 -6.048,-5.137 0,-2.832 2.784,-4.319 5.04,-5.184 l 2.592,-1.008 c 5.136,-2.016 8.976,-4.848 8.976,-10.896 0,-6.576 -5.088,-11.28 -11.568,-11.28 -5.855,0 -10.416,4.32 -11.184,10.128 l 4.56,0.961 c -0.048,-3.985 3.12,-6.865 7.008,-6.865 3.888,0 6.673,3.264 6.673,7.056 0,3.888 -3.121,5.568 -6.241,6.864 l -2.496,1.056 c -4.128,1.776 -7.872,4.128 -7.872,9.168 0,5.856 5.184,9.361 10.656,9.361 4.032,0 7.344,-1.969 9.312,-5.472 l -3.6,-2.161 z"
           style="fill:#b5121b;fill-opacity:1;fill-rule:nonzero;stroke:none"
           id="path132"
           inkscape:connector-curvature="0" /><path
           d="m 104.807,651.714 c -21.427,0 -38.859,17.432 -38.859,38.859 0,21.428 17.432,38.861 38.859,38.861 14.156,0 26.564,-7.612 33.358,-18.955 l 3.458,0 c -7.092,13.065 -20.935,21.955 -36.816,21.955 -23.081,0 -41.859,-18.779 -41.859,-41.861 0,-23.081 18.778,-41.859 41.859,-41.859 16.027,0 29.973,9.058 37.004,22.32 l -3.435,0 c -6.745,-11.543 -19.262,-19.32 -33.569,-19.32"
           style="fill:#808183;fill-opacity:1;fill-rule:nonzero;stroke:none"
           id="path134"
           inkscape:connector-curvature="0" /><path
           d="m 99.746,656.774 c -18.636,0 -33.798,15.163 -33.798,33.799 0,18.637 15.162,33.799 33.798,33.799 11.199,0 21.138,-5.479 27.291,-13.893 l 3.634,0 c -6.558,10.153 -17.965,16.893 -30.925,16.893 -20.29,0 -36.798,-16.508 -36.798,-36.799 0,-20.291 16.508,-36.799 36.798,-36.799 13.116,0 24.643,6.903 31.161,17.26 l -3.608,0 c -6.132,-8.62 -16.193,-14.26 -27.553,-14.26"
           style="fill:#9c9ea0;fill-opacity:1;fill-rule:nonzero;stroke:none"
           id="path136"
           inkscape:connector-curvature="0" /><path
           d="m 90.474,666.188 c -13.545,0 -24.564,11.019 -24.564,24.563 0,13.544 11.019,24.562 24.564,24.562 5.47,0 10.526,-1.798 14.613,-4.834 l 4.607,0 c -4.969,4.843 -11.75,7.834 -19.22,7.834 -15.199,0 -27.564,-12.364 -27.564,-27.562 0,-15.198 12.365,-27.563 27.564,-27.563 7.476,0 14.262,2.997 19.233,7.846 l -4.603,0 c -4.09,-3.042 -9.153,-4.846 -14.63,-4.846"
           style="fill:#bbbdbf;fill-opacity:1;fill-rule:nonzero;stroke:none"
           id="path138"
           inkscape:connector-curvature="0" /></g></g><g
       id="colour_nolettering"
       inkscape:label="#g140"
       transform="matrix(0.8356255,0,0,0.8356255,10.3408,76.551502)"><g
         id="g142"
         clip-path="url(#clipPath144)"><path
           d="m 100.022,518.854 c -2.592,2.303 -6.144,3.551 -9.552,3.551 -8.112,0 -14.304,-6.768 -14.304,-14.783 0,-7.921 6.144,-14.689 14.208,-14.689 3.552,0 6.96,1.344 9.648,3.744 l 0,-5.328 c -2.784,-1.632 -6.336,-2.544 -9.504,-2.544 -10.32,0 -18.864,8.208 -18.864,18.673 0,10.704 8.592,19.056 19.248,19.056 3.168,0 6.384,-0.768 9.12,-2.449 l 0,-5.231 z"
           style="fill:#b5121b;fill-opacity:1;fill-rule:nonzero;stroke:none"
           id="path148"
           inkscape:connector-curvature="0" /><path
           d="m 126.758,511.173 0,14.593 4.512,0 0,-36.193 -4.512,0 0,17.376 -17.233,0 0,-17.376 -4.511,0 0,36.193 4.511,0 0,-14.593 17.233,0 z"
           style="fill:#b5121b;fill-opacity:1;fill-rule:nonzero;stroke:none"
           id="path150"
           inkscape:connector-curvature="0" /><path
           d="m 142.165,489.573 -4.512,0 0,36.192 4.512,0 0,-36.192 z"
           style="fill:#b5121b;fill-opacity:1;fill-rule:nonzero;stroke:none"
           id="path152"
           inkscape:connector-curvature="0" /><path
           d="m 175.285,518.854 c -2.592,2.303 -6.144,3.551 -9.552,3.551 -8.112,0 -14.304,-6.768 -14.304,-14.783 0,-7.921 6.144,-14.689 14.208,-14.689 3.551,0 6.96,1.344 9.648,3.744 l 0,-5.328 c -2.784,-1.632 -6.336,-2.544 -9.504,-2.544 -10.321,0 -18.864,8.208 -18.864,18.673 0,10.704 8.592,19.056 19.248,19.056 3.168,0 6.384,-0.768 9.12,-2.449 l 0,-5.231 z"
           style="fill:#b5121b;fill-opacity:1;fill-rule:nonzero;stroke:none"
           id="path154"
           inkscape:connector-curvature="0" /><path
           d="m 194.101,517.414 -6.433,-14.641 12.865,0 -6.432,14.641 z m -8.304,-18.768 -4.129,-9.073 -4.847,0 17.28,37.729 17.28,-37.729 -4.848,0 -4.128,9.073 -16.608,0 z"
           style="fill:#b5121b;fill-opacity:1;fill-rule:nonzero;stroke:none"
           id="path156"
           inkscape:connector-curvature="0" /><path
           d="m 230.484,518.901 c -1.344,2.256 -3.072,3.409 -5.808,3.409 -2.88,0 -6.048,-1.969 -6.048,-5.137 0,-2.832 2.784,-4.319 5.04,-5.184 l 2.592,-1.008 c 5.136,-2.016 8.976,-4.848 8.976,-10.896 0,-6.576 -5.088,-11.28 -11.568,-11.28 -5.855,0 -10.416,4.32 -11.184,10.128 l 4.56,0.961 c -0.048,-3.985 3.12,-6.865 7.008,-6.865 3.888,0 6.673,3.264 6.673,7.056 0,3.888 -3.121,5.568 -6.241,6.864 l -2.496,1.056 c -4.128,1.776 -7.872,4.128 -7.872,9.168 0,5.856 5.184,9.361 10.656,9.361 4.032,0 7.344,-1.969 9.312,-5.472 l -3.6,-2.161 z"
           style="fill:#b5121b;fill-opacity:1;fill-rule:nonzero;stroke:none"
           id="path158"
           inkscape:connector-curvature="0" /><path
           d="m 104.807,468.714 c -21.427,0 -38.859,17.432 -38.859,38.859 0,21.428 17.432,38.861 38.859,38.861 14.156,0 26.564,-7.612 33.358,-18.955 l 3.458,0 c -7.092,13.065 -20.935,21.955 -36.816,21.955 -23.081,0 -41.859,-18.779 -41.859,-41.861 0,-23.081 18.778,-41.859 41.859,-41.859 16.027,0 29.972,9.058 37.004,22.32 l -3.435,0 c -6.745,-11.543 -19.262,-19.32 -33.569,-19.32"
           style="fill:#808183;fill-opacity:1;fill-rule:nonzero;stroke:none"
           id="path160"
           inkscape:connector-curvature="0" /><path
           d="m 99.746,473.774 c -18.636,0 -33.798,15.163 -33.798,33.799 0,18.637 15.162,33.799 33.798,33.799 11.199,0 21.138,-5.479 27.291,-13.893 l 3.634,0 c -6.558,10.153 -17.965,16.893 -30.925,16.893 -20.29,0 -36.798,-16.508 -36.798,-36.799 0,-20.291 16.508,-36.799 36.798,-36.799 13.116,0 24.643,6.903 31.161,17.26 l -3.608,0 c -6.132,-8.62 -16.193,-14.26 -27.553,-14.26"
           style="fill:#9c9ea0;fill-opacity:1;fill-rule:nonzero;stroke:none"
           id="path162"
           inkscape:connector-curvature="0" /><path
           d="m 90.474,483.188 c -13.545,0 -24.564,11.019 -24.564,24.563 0,13.544 11.019,24.562 24.564,24.562 5.47,0 10.526,-1.798 14.613,-4.834 l 4.607,0 c -4.969,4.843 -11.75,7.834 -19.22,7.834 -15.199,0 -27.564,-12.364 -27.564,-27.562 0,-15.198 12.365,-27.563 27.564,-27.563 7.476,0 14.262,2.997 19.233,7.846 l -4.603,0 c -4.09,-3.042 -9.153,-4.846 -14.63,-4.846"
           style="fill:#bbbdbf;fill-opacity:1;fill-rule:nonzero;stroke:none"
           id="path164"
           inkscape:connector-curvature="0" /></g></g><g
       id="bw_nolettering"
       inkscape:label="#g166"
       transform="matrix(0.8356255,0,0,0.8356255,-9.765909,76.551502)"><g
         id="g168"
         clip-path="url(#clipPath170)"><path
           d="m 386.521,518.854 c -2.591,2.303 -6.143,3.551 -9.55,3.551 -8.114,0 -14.305,-6.768 -14.305,-14.783 0,-7.921 6.145,-14.689 14.208,-14.689 3.552,0 6.96,1.344 9.647,3.744 l 0,-5.328 c -2.783,-1.632 -6.335,-2.544 -9.503,-2.544 -10.321,0 -18.864,8.208 -18.864,18.673 0,10.704 8.592,19.056 19.248,19.056 3.168,0 6.384,-0.768 9.119,-2.449 l 0,-5.231 z"
           style="fill:#000000;fill-opacity:1;fill-rule:nonzero;stroke:none"
           id="path174"
           inkscape:connector-curvature="0" /><path
           d="m 413.258,511.173 0,14.593 4.512,0 0,-36.193 -4.512,0 0,17.376 -17.233,0 0,-17.376 -4.511,0 0,36.193 4.511,0 0,-14.593 17.233,0 z"
           style="fill:#000000;fill-opacity:1;fill-rule:nonzero;stroke:none"
           id="path176"
           inkscape:connector-curvature="0" /><path
           d="m 428.665,489.573 -4.513,0 0,36.192 4.513,0 0,-36.192 z"
           style="fill:#000000;fill-opacity:1;fill-rule:nonzero;stroke:none"
           id="path178"
           inkscape:connector-curvature="0" /><path
           d="m 461.785,518.854 c -2.592,2.303 -6.144,3.551 -9.553,3.551 -8.111,0 -14.303,-6.768 -14.303,-14.783 0,-7.921 6.143,-14.689 14.208,-14.689 3.551,0 6.96,1.344 9.648,3.744 l 0,-5.328 c -2.784,-1.632 -6.336,-2.544 -9.504,-2.544 -10.32,0 -18.865,8.208 -18.865,18.673 0,10.704 8.593,19.056 19.248,19.056 3.168,0 6.385,-0.768 9.121,-2.449 l 0,-5.231 z"
           style="fill:#000000;fill-opacity:1;fill-rule:nonzero;stroke:none"
           id="path180"
           inkscape:connector-curvature="0" /><path
           d="m 480.601,517.414 -6.433,-14.641 12.865,0 -6.432,14.641 z m -8.304,-18.768 -4.129,-9.073 -4.848,0 17.281,37.729 17.28,-37.729 -4.848,0 -4.129,9.073 -16.607,0 z"
           style="fill:#000000;fill-opacity:1;fill-rule:nonzero;stroke:none"
           id="path182"
           inkscape:connector-curvature="0" /><path
           d="m 516.984,518.901 c -1.343,2.256 -3.072,3.409 -5.808,3.409 -2.879,0 -6.047,-1.969 -6.047,-5.137 0,-2.832 2.783,-4.319 5.039,-5.184 l 2.592,-1.008 c 5.136,-2.016 8.976,-4.848 8.976,-10.896 0,-6.576 -5.088,-11.28 -11.568,-11.28 -5.855,0 -10.416,4.32 -11.184,10.128 l 4.561,0.961 c -0.049,-3.985 3.119,-6.865 7.008,-6.865 3.887,0 6.672,3.264 6.672,7.056 0,3.888 -3.121,5.568 -6.241,6.864 l -2.496,1.056 c -4.128,1.776 -7.872,4.128 -7.872,9.168 0,5.856 5.185,9.361 10.656,9.361 4.033,0 7.344,-1.969 9.312,-5.472 l -3.6,-2.161 z"
           style="fill:#000000;fill-opacity:1;fill-rule:nonzero;stroke:none"
           id="path184"
           inkscape:connector-curvature="0" /><path
           d="m 391.307,468.714 c -21.427,0 -38.859,17.432 -38.859,38.859 0,21.428 17.432,38.861 38.859,38.861 14.156,0 26.564,-7.612 33.358,-18.955 l 3.458,0 c -7.092,13.065 -20.935,21.955 -36.816,21.955 -23.081,0 -41.859,-18.779 -41.859,-41.861 0,-23.081 18.778,-41.859 41.859,-41.859 16.027,0 29.972,9.058 37.004,22.32 l -3.435,0 c -6.745,-11.543 -19.263,-19.32 -33.569,-19.32"
           style="fill:#808183;fill-opacity:1;fill-rule:nonzero;stroke:none"
           id="path186"
           inkscape:connector-curvature="0" /><path
           d="m 386.246,473.774 c -18.637,0 -33.798,15.163 -33.798,33.799 0,18.637 15.161,33.799 33.798,33.799 11.199,0 21.138,-5.479 27.291,-13.893 l 3.635,0 c -6.559,10.153 -17.967,16.893 -30.926,16.893 -20.291,0 -36.798,-16.508 -36.798,-36.799 0,-20.291 16.507,-36.799 36.798,-36.799 13.115,0 24.643,6.903 31.161,17.26 l -3.608,0 c -6.131,-8.62 -16.193,-14.26 -27.553,-14.26"
           style="fill:#9c9ea0;fill-opacity:1;fill-rule:nonzero;stroke:none"
           id="path188"
           inkscape:connector-curvature="0" /><path
           d="m 376.974,483.188 c -13.544,0 -24.564,11.019 -24.564,24.563 0,13.544 11.02,24.562 24.564,24.562 5.469,0 10.526,-1.798 14.614,-4.834 l 4.606,0 c -4.969,4.843 -11.751,7.834 -19.22,7.834 -15.199,0 -27.564,-12.364 -27.564,-27.562 0,-15.198 12.365,-27.563 27.564,-27.563 7.475,0 14.262,2.997 19.233,7.846 l -4.603,0 c -4.09,-3.042 -9.153,-4.846 -14.63,-4.846"
           style="fill:#bbbdbf;fill-opacity:1;fill-rule:nonzero;stroke:none"
           id="path190"
           inkscape:connector-curvature="0" /></g></g><g
       id="bw_lettering"
       inkscape:label="#g192"
       transform="matrix(0.8356255,0,0,0.8356255,-9.765909,63.23705)"><g
         id="g194"
         clip-path="url(#clipPath196)"><path
           d="m 476.311,661.093 c -0.397,0.451 -0.88,0.693 -1.474,0.693 -0.968,0 -1.716,-0.858 -1.716,-1.804 0,-1.056 0.736,-1.826 1.781,-1.826 0.573,0 1.035,0.264 1.409,0.682 l 0,-1.265 c -0.452,-0.242 -0.903,-0.341 -1.419,-0.341 -1.519,0 -2.761,1.166 -2.761,2.706 0,1.595 1.232,2.772 2.816,2.772 0.461,0 0.967,-0.109 1.364,-0.341 l 0,-1.276 z"
           style="fill:#231f20;fill-opacity:1;fill-rule:nonzero;stroke:none"
           id="path200"
           inkscape:connector-curvature="0" /><path
           d="m 477.906,659.971 c 0,-0.968 0.782,-1.793 1.76,-1.793 0.979,0 1.76,0.825 1.76,1.793 0,0.979 -0.781,1.794 -1.76,1.794 -0.978,0 -1.76,-0.815 -1.76,-1.794 m 4.51,0 c 0,-1.551 -1.211,-2.739 -2.75,-2.739 -1.54,0 -2.75,1.188 -2.75,2.739 0,1.551 1.21,2.739 2.75,2.739 1.539,0 2.75,-1.188 2.75,-2.739"
           style="fill:#231f20;fill-opacity:1;fill-rule:nonzero;stroke:none"
           id="path202"
           inkscape:connector-curvature="0" /><path
           d="m 484.275,661.907 0.022,0 c 0.285,0.451 0.803,0.803 1.363,0.803 0.672,0 1.156,-0.341 1.486,-0.913 0.319,0.551 0.934,0.913 1.583,0.913 1.353,0 1.706,-1.056 1.706,-2.222 l 0,-3.08 -0.99,0 0,2.915 c 0,0.66 -0.088,1.507 -0.957,1.507 -1.056,0 -1.134,-1.1 -1.134,-1.892 l 0,-2.53 -0.989,0 0,2.728 c 0,0.672 -0.033,1.694 -0.946,1.694 -1.056,0 -1.144,-1.089 -1.144,-1.892 l 0,-2.53 -0.99,0 0,5.149 0.99,0 0,-0.65 z"
           style="fill:#231f20;fill-opacity:1;fill-rule:nonzero;stroke:none"
           id="path204"
           inkscape:connector-curvature="0" /><path
           d="m 495.912,659.982 c 0,1.001 -0.604,1.848 -1.672,1.848 -1.022,0 -1.627,-0.891 -1.627,-1.848 0,-0.967 0.582,-1.87 1.627,-1.87 1.078,0 1.672,0.858 1.672,1.87 m -4.234,6.974 0.99,0 0,-5.258 0.021,0 c 0.408,0.616 1.024,1.012 1.793,1.012 1.486,0 2.42,-1.287 2.42,-2.694 0,-1.475 -0.879,-2.784 -2.463,-2.784 -0.726,0 -1.353,0.396 -1.75,0.979 l -0.021,0 0,-0.803 -0.99,0 0,9.548 z"
           style="fill:#231f20;fill-opacity:1;fill-rule:nonzero;stroke:none"
           id="path206"
           inkscape:connector-curvature="0" /><path
           d="m 499.08,657.408 -0.99,0 0,5.148 0.99,0 0,-5.148 z m 0.188,7.502 c 0,-0.374 -0.309,-0.671 -0.682,-0.671 -0.375,0 -0.683,0.297 -0.683,0.671 0,0.385 0.308,0.694 0.683,0.694 0.373,0 0.682,-0.309 0.682,-0.694"
           style="fill:#231f20;fill-opacity:1;fill-rule:nonzero;stroke:none"
           id="path208"
           inkscape:connector-curvature="0" /><path
           d="m 501.654,661.863 0.022,0 c 0.308,0.55 0.925,0.847 1.552,0.847 1.452,0 1.825,-0.979 1.825,-2.232 l 0,-3.07 -0.99,0 0,2.948 c 0,0.88 -0.121,1.474 -1.133,1.474 -1.276,0 -1.276,-1.122 -1.276,-2.057 l 0,-2.365 -0.99,0 0,5.149 0.99,0 0,-0.694 z"
           style="fill:#231f20;fill-opacity:1;fill-rule:nonzero;stroke:none"
           id="path210"
           inkscape:connector-curvature="0" /><path
           d="m 507.627,657.408 -0.99,0 0,5.148 0.99,0 0,-5.148 z m 0.187,7.502 c 0,-0.374 -0.308,-0.671 -0.681,-0.671 -0.375,0 -0.683,0.297 -0.683,0.671 0,0.385 0.308,0.694 0.683,0.694 0.373,0 0.681,-0.309 0.681,-0.694"
           style="fill:#231f20;fill-opacity:1;fill-rule:nonzero;stroke:none"
           id="path212"
           inkscape:connector-curvature="0" /><path
           d="m 510.201,661.863 0.022,0 c 0.308,0.55 0.924,0.847 1.551,0.847 1.453,0 1.826,-0.979 1.826,-2.232 l 0,-3.07 -0.99,0 0,2.948 c 0,0.88 -0.121,1.474 -1.133,1.474 -1.276,0 -1.276,-1.122 -1.276,-2.057 l 0,-2.365 -0.99,0 0,5.149 0.99,0 0,-0.694 z"
           style="fill:#231f20;fill-opacity:1;fill-rule:nonzero;stroke:none"
           id="path214"
           inkscape:connector-curvature="0" /><path
           d="m 518.848,659.982 c 0,1.001 -0.606,1.848 -1.672,1.848 -1.024,0 -1.629,-0.891 -1.629,-1.848 0,-0.967 0.584,-1.87 1.629,-1.87 1.078,0 1.672,0.858 1.672,1.87 m 0.934,-2.475 c 0,-1.771 -0.506,-3.047 -2.508,-3.047 -1.43,0 -2.463,0.88 -2.486,2.332 l 0.99,0 c 0,-0.924 0.638,-1.452 1.54,-1.452 1.221,0 1.474,0.836 1.474,1.892 l 0,0.979 -0.022,0 c -0.396,-0.583 -1.023,-0.979 -1.749,-0.979 -1.583,0 -2.464,1.309 -2.464,2.784 0,1.407 0.935,2.694 2.42,2.694 0.77,0 1.386,-0.396 1.793,-1.034 l 0.022,0 0,0.881 0.99,0 0,-5.05 z"
           style="fill:#231f20;fill-opacity:1;fill-rule:nonzero;stroke:none"
           id="path216"
           inkscape:connector-curvature="0" /><path
           d="m 434.489,653.756 0,-5.093 0.023,0 c 0.307,0.55 0.924,0.847 1.551,0.847 1.451,0 1.826,-0.979 1.826,-2.233 l 0,-3.069 -0.991,0 0,2.948 c 0,0.88 -0.121,1.474 -1.132,1.474 -1.277,0 -1.277,-1.122 -1.277,-2.057 l 0,-2.365 -0.989,0 0,9.548 0.989,0 z"
           style="fill:#231f20;fill-opacity:1;fill-rule:nonzero;stroke:none"
           id="path218"
           inkscape:connector-curvature="0" /><path
           d="m 442.783,647.365 c -0.121,0.77 -0.627,1.287 -1.419,1.287 -0.77,0 -1.342,-0.55 -1.463,-1.287 l 2.882,0 z m -2.937,-0.748 c 0.011,-0.88 0.605,-1.705 1.551,-1.705 0.759,0 1.166,0.385 1.541,1.001 l 0.835,-0.473 c -0.484,-0.891 -1.386,-1.408 -2.386,-1.408 -1.574,0 -2.531,1.188 -2.531,2.706 0,1.584 0.847,2.772 2.508,2.772 1.64,0 2.409,-1.21 2.409,-2.739 l 0,-0.154 -3.927,0 z"
           style="fill:#231f20;fill-opacity:1;fill-rule:nonzero;stroke:none"
           id="path220"
           inkscape:connector-curvature="0" /><path
           d="m 448.514,646.782 c 0,1.001 -0.605,1.848 -1.672,1.848 -1.024,0 -1.628,-0.891 -1.628,-1.848 0,-0.968 0.583,-1.87 1.628,-1.87 1.078,0 1.672,0.858 1.672,1.87 m 0.935,-2.574 -0.99,0 0,0.803 -0.021,0 c -0.397,-0.583 -1.013,-0.979 -1.75,-0.979 -1.573,0 -2.463,1.309 -2.463,2.783 0,1.408 0.934,2.695 2.429,2.695 0.76,0 1.375,-0.396 1.784,-1.012 l 0.021,0 0,0.858 0.99,0 0,-5.148 z"
           style="fill:#231f20;fill-opacity:1;fill-rule:nonzero;stroke:none"
           id="path222"
           inkscape:connector-curvature="0" /><path
           d="m 451.77,644.208 -0.989,0 0,9.548 0.989,0 0,-9.548 z"
           style="fill:#231f20;fill-opacity:1;fill-rule:nonzero;stroke:none"
           id="path224"
           inkscape:connector-curvature="0" /><path
           d="m 454.311,644.208 -0.99,0 0,4.224 -0.539,0 0,0.924 0.539,0 0,1.969 0.99,0 0,-1.969 0.968,0 0,-0.924 -0.968,0 0,-4.224 z"
           style="fill:#231f20;fill-opacity:1;fill-rule:nonzero;stroke:none"
           id="path226"
           inkscape:connector-curvature="0" /><path
           d="m 456.808,653.756 0,-5.093 0.022,0 c 0.308,0.55 0.924,0.847 1.551,0.847 1.451,0 1.826,-0.979 1.826,-2.233 l 0,-3.069 -0.99,0 0,2.948 c 0,0.88 -0.121,1.474 -1.133,1.474 -1.276,0 -1.276,-1.122 -1.276,-2.057 l 0,-2.365 -0.99,0 0,9.548 0.99,0 z"
           style="fill:#231f20;fill-opacity:1;fill-rule:nonzero;stroke:none"
           id="path228"
           inkscape:connector-curvature="0" /><path
           d="m 465.96,644.208 -0.99,0 0,5.148 0.99,0 0,-5.148 z m 0.186,7.502 c 0,-0.374 -0.307,-0.671 -0.681,-0.671 -0.374,0 -0.682,0.297 -0.682,0.671 0,0.385 0.308,0.693 0.682,0.693 0.374,0 0.681,-0.308 0.681,-0.693"
           style="fill:#231f20;fill-opacity:1;fill-rule:nonzero;stroke:none"
           id="path230"
           inkscape:connector-curvature="0" /><path
           d="m 468.533,648.663 0.023,0 c 0.307,0.55 0.924,0.847 1.551,0.847 1.452,0 1.826,-0.979 1.826,-2.233 l 0,-3.069 -0.99,0 0,2.948 c 0,0.88 -0.121,1.474 -1.133,1.474 -1.277,0 -1.277,-1.122 -1.277,-2.057 l 0,-2.365 -0.989,0 0,5.148 0.989,0 0,-0.693 z"
           style="fill:#231f20;fill-opacity:1;fill-rule:nonzero;stroke:none"
           id="path232"
           inkscape:connector-curvature="0" /><path
           d="m 475.849,652.755 c -0.199,0.088 -0.451,0.209 -0.66,0.209 -0.705,0 -0.705,-0.891 -0.705,-1.397 l 0,-2.211 1.365,0 0,-0.924 -1.365,0 0,-4.224 -0.99,0 0,4.224 -0.45,0 0,0.924 0.45,0 0,2.508 c 0,1.122 0.386,2.024 1.662,2.024 0.242,0 0.473,-0.044 0.693,-0.132 l 0,-1.001 z"
           style="fill:#231f20;fill-opacity:1;fill-rule:nonzero;stroke:none"
           id="path234"
           inkscape:connector-curvature="0" /><path
           d="m 476.85,646.771 c 0,-0.968 0.781,-1.793 1.759,-1.793 0.979,0 1.76,0.825 1.76,1.793 0,0.979 -0.781,1.793 -1.76,1.793 -0.978,0 -1.759,-0.814 -1.759,-1.793 m 4.509,0 c 0,-1.551 -1.21,-2.739 -2.75,-2.739 -1.539,0 -2.75,1.188 -2.75,2.739 0,1.551 1.211,2.739 2.75,2.739 1.54,0 2.75,-1.188 2.75,-2.739"
           style="fill:#231f20;fill-opacity:1;fill-rule:nonzero;stroke:none"
           id="path236"
           inkscape:connector-curvature="0" /><path
           d="m 483.317,648.52 0.034,0 c 0.242,0.605 0.748,0.99 1.408,0.99 0.286,0 0.571,-0.099 0.813,-0.253 l -0.451,-0.902 c -0.176,0.154 -0.373,0.209 -0.604,0.209 -1.068,0 -1.2,-0.99 -1.2,-1.826 l 0,-2.53 -0.989,0 0,5.148 0.989,0 0,-0.836 z"
           style="fill:#231f20;fill-opacity:1;fill-rule:nonzero;stroke:none"
           id="path238"
           inkscape:connector-curvature="0" /><path
           d="m 487.168,648.707 0.021,0 c 0.286,0.451 0.803,0.803 1.364,0.803 0.672,0 1.156,-0.341 1.485,-0.913 0.319,0.549 0.935,0.913 1.584,0.913 1.353,0 1.705,-1.056 1.705,-2.222 l 0,-3.08 -0.989,0 0,2.915 c 0,0.66 -0.088,1.507 -0.957,1.507 -1.057,0 -1.134,-1.1 -1.134,-1.892 l 0,-2.53 -0.989,0 0,2.728 c 0,0.671 -0.033,1.694 -0.946,1.694 -1.056,0 -1.144,-1.089 -1.144,-1.892 l 0,-2.53 -0.99,0 0,5.148 0.99,0 0,-0.649 z"
           style="fill:#231f20;fill-opacity:1;fill-rule:nonzero;stroke:none"
           id="path240"
           inkscape:connector-curvature="0" /><path
           d="m 498.541,646.782 c 0,1.001 -0.604,1.848 -1.672,1.848 -1.023,0 -1.628,-0.891 -1.628,-1.848 0,-0.968 0.583,-1.87 1.628,-1.87 1.078,0 1.672,0.858 1.672,1.87 m 0.936,-2.574 -0.991,0 0,0.803 -0.021,0 c -0.397,-0.583 -1.013,-0.979 -1.75,-0.979 -1.572,0 -2.463,1.309 -2.463,2.783 0,1.408 0.935,2.695 2.43,2.695 0.759,0 1.375,-0.396 1.783,-1.012 l 0.021,0 0,0.858 0.991,0 0,-5.148 z"
           style="fill:#231f20;fill-opacity:1;fill-rule:nonzero;stroke:none"
           id="path242"
           inkscape:connector-curvature="0" /><path
           d="m 501.896,644.208 -0.99,0 0,4.224 -0.539,0 0,0.924 0.539,0 0,1.969 0.99,0 0,-1.969 0.969,0 0,-0.924 -0.969,0 0,-4.224 z"
           style="fill:#231f20;fill-opacity:1;fill-rule:nonzero;stroke:none"
           id="path244"
           inkscape:connector-curvature="0" /><path
           d="m 504.613,644.208 -0.99,0 0,5.148 0.99,0 0,-5.148 z m 0.188,7.502 c 0,-0.374 -0.309,-0.671 -0.683,-0.671 -0.374,0 -0.682,0.297 -0.682,0.671 0,0.385 0.308,0.693 0.682,0.693 0.374,0 0.683,-0.308 0.683,-0.693"
           style="fill:#231f20;fill-opacity:1;fill-rule:nonzero;stroke:none"
           id="path246"
           inkscape:connector-curvature="0" /><path
           d="m 506.725,646.771 c 0,-0.968 0.781,-1.793 1.759,-1.793 0.98,0 1.761,0.825 1.761,1.793 0,0.979 -0.781,1.793 -1.761,1.793 -0.978,0 -1.759,-0.814 -1.759,-1.793 m 4.509,0 c 0,-1.551 -1.209,-2.739 -2.75,-2.739 -1.539,0 -2.749,1.188 -2.749,2.739 0,1.551 1.21,2.739 2.749,2.739 1.541,0 2.75,-1.188 2.75,-2.739"
           style="fill:#231f20;fill-opacity:1;fill-rule:nonzero;stroke:none"
           id="path248"
           inkscape:connector-curvature="0" /><path
           d="m 513.127,648.663 0.021,0 c 0.309,0.55 0.925,0.847 1.552,0.847 1.452,0 1.825,-0.979 1.825,-2.233 l 0,-3.069 -0.989,0 0,2.948 c 0,0.88 -0.121,1.474 -1.134,1.474 -1.275,0 -1.275,-1.122 -1.275,-2.057 l 0,-2.365 -0.99,0 0,5.148 0.99,0 0,-0.693 z"
           style="fill:#231f20;fill-opacity:1;fill-rule:nonzero;stroke:none"
           id="path250"
           inkscape:connector-curvature="0" /><path
           d="m 519.87,645.176 -1.463,-2.937 -0.604,0.253 1.209,3.025 0.858,-0.341 z"
           style="fill:#231f20;fill-opacity:1;fill-rule:nonzero;stroke:none"
           id="path252"
           inkscape:connector-curvature="0" /><path
           d="m 406.506,634.692 c -0.397,0.452 -0.88,0.694 -1.474,0.694 -0.968,0 -1.716,-0.859 -1.716,-1.804 0,-1.057 0.737,-1.826 1.782,-1.826 0.572,0 1.034,0.264 1.408,0.682 l 0,-1.265 c -0.451,-0.242 -0.902,-0.341 -1.419,-0.341 -1.519,0 -2.761,1.166 -2.761,2.706 0,1.595 1.233,2.772 2.817,2.772 0.461,0 0.966,-0.11 1.363,-0.341 l 0,-1.277 z"
           style="fill:#231f20;fill-opacity:1;fill-rule:nonzero;stroke:none"
           id="path254"
           inkscape:connector-curvature="0" /><path
           d="m 408.102,633.57 c 0,-0.967 0.781,-1.793 1.759,-1.793 0.979,0 1.76,0.826 1.76,1.793 0,0.98 -0.781,1.794 -1.76,1.794 -0.978,0 -1.759,-0.814 -1.759,-1.794 m 4.509,0 c 0,-1.55 -1.211,-2.738 -2.75,-2.738 -1.54,0 -2.75,1.188 -2.75,2.738 0,1.552 1.21,2.74 2.75,2.74 1.539,0 2.75,-1.188 2.75,-2.74"
           style="fill:#231f20;fill-opacity:1;fill-rule:nonzero;stroke:none"
           id="path256"
           inkscape:connector-curvature="0" /><path
           d="m 414.471,635.507 0.021,0 c 0.285,0.451 0.803,0.803 1.363,0.803 0.672,0 1.157,-0.341 1.486,-0.914 0.319,0.551 0.934,0.914 1.584,0.914 1.352,0 1.705,-1.056 1.705,-2.222 l 0,-3.08 -0.989,0 0,2.915 c 0,0.66 -0.088,1.507 -0.957,1.507 -1.057,0 -1.134,-1.1 -1.134,-1.892 l 0,-2.53 -0.989,0 0,2.727 c 0,0.672 -0.034,1.695 -0.947,1.695 -1.055,0 -1.143,-1.089 -1.143,-1.892 l 0,-2.53 -0.991,0 0,5.148 0.991,0 0,-0.649 z"
           style="fill:#231f20;fill-opacity:1;fill-rule:nonzero;stroke:none"
           id="path258"
           inkscape:connector-curvature="0" /><path
           d="m 426.107,633.582 c 0,1.001 -0.604,1.848 -1.671,1.848 -1.023,0 -1.627,-0.891 -1.627,-1.848 0,-0.968 0.582,-1.87 1.627,-1.87 1.078,0 1.671,0.857 1.671,1.87 m -3.244,1.716 0.022,0 c 0.407,0.616 1.023,1.012 1.793,1.012 1.485,0 2.42,-1.288 2.42,-2.695 0,-1.474 -0.879,-2.783 -2.463,-2.783 -0.727,0 -1.354,0.396 -1.75,0.979 l -0.022,0 0,-3.751 -0.99,0 0,8.096 0.99,0 0,-0.858 z"
           style="fill:#231f20;fill-opacity:1;fill-rule:nonzero;stroke:none"
           id="path260"
           inkscape:connector-curvature="0" /><path
           d="m 429.012,636.156 0,-2.849 c 0,-0.826 0.209,-1.551 1.187,-1.551 0.98,0 1.189,0.725 1.189,1.551 l 0,2.849 0.99,0 0,-2.959 c 0,-1.408 -0.66,-2.365 -2.179,-2.365 -1.517,0 -2.178,0.957 -2.178,2.365 l 0,2.959 0.991,0 z"
           style="fill:#231f20;fill-opacity:1;fill-rule:nonzero;stroke:none"
           id="path262"
           inkscape:connector-curvature="0" /><path
           d="m 434.83,631.008 -0.989,0 0,4.223 -0.539,0 0,0.925 0.539,0 0,1.969 0.989,0 0,-1.969 0.969,0 0,-0.925 -0.969,0 0,-4.223 z"
           style="fill:#231f20;fill-opacity:1;fill-rule:nonzero;stroke:none"
           id="path264"
           inkscape:connector-curvature="0" /><path
           d="m 440.232,633.582 c 0,1.001 -0.605,1.848 -1.672,1.848 -1.023,0 -1.628,-0.891 -1.628,-1.848 0,-0.968 0.583,-1.87 1.628,-1.87 1.078,0 1.672,0.857 1.672,1.87 m 0.934,-2.574 -0.989,0 0,0.803 -0.023,0 c -0.395,-0.583 -1.011,-0.979 -1.748,-0.979 -1.574,0 -2.465,1.309 -2.465,2.783 0,1.407 0.936,2.695 2.432,2.695 0.759,0 1.375,-0.396 1.781,-1.012 l 0.023,0 0,0.858 0.989,0 0,-5.148 z"
           style="fill:#231f20;fill-opacity:1;fill-rule:nonzero;stroke:none"
           id="path266"
           inkscape:connector-curvature="0" /><path
           d="m 443.586,631.008 -0.989,0 0,4.223 -0.539,0 0,0.925 0.539,0 0,1.969 0.989,0 0,-1.969 0.969,0 0,-0.925 -0.969,0 0,-4.223 z"
           style="fill:#231f20;fill-opacity:1;fill-rule:nonzero;stroke:none"
           id="path268"
           inkscape:connector-curvature="0" /><path
           d="m 446.304,631.008 -0.99,0 0,5.148 0.99,0 0,-5.148 z m 0.186,7.502 c 0,-0.374 -0.307,-0.671 -0.681,-0.671 -0.374,0 -0.682,0.297 -0.682,0.671 0,0.385 0.308,0.693 0.682,0.693 0.374,0 0.681,-0.308 0.681,-0.693"
           style="fill:#231f20;fill-opacity:1;fill-rule:nonzero;stroke:none"
           id="path270"
           inkscape:connector-curvature="0" /><path
           d="m 448.416,633.57 c 0,-0.967 0.781,-1.793 1.76,-1.793 0.978,0 1.76,0.826 1.76,1.793 0,0.98 -0.782,1.794 -1.76,1.794 -0.979,0 -1.76,-0.814 -1.76,-1.794 m 4.51,0 c 0,-1.55 -1.211,-2.738 -2.75,-2.738 -1.54,0 -2.75,1.188 -2.75,2.738 0,1.552 1.21,2.74 2.75,2.74 1.539,0 2.75,-1.188 2.75,-2.74"
           style="fill:#231f20;fill-opacity:1;fill-rule:nonzero;stroke:none"
           id="path272"
           inkscape:connector-curvature="0" /><path
           d="m 454.817,635.463 0.023,0 c 0.307,0.55 0.924,0.847 1.551,0.847 1.451,0 1.826,-0.979 1.826,-2.233 l 0,-3.069 -0.99,0 0,2.948 c 0,0.88 -0.122,1.474 -1.133,1.474 -1.277,0 -1.277,-1.122 -1.277,-2.057 l 0,-2.365 -0.989,0 0,5.148 0.989,0 0,-0.693 z"
           style="fill:#231f20;fill-opacity:1;fill-rule:nonzero;stroke:none"
           id="path274"
           inkscape:connector-curvature="0" /><path
           d="m 466.653,633.582 c 0,1.001 -0.604,1.848 -1.673,1.848 -1.022,0 -1.626,-0.891 -1.626,-1.848 0,-0.968 0.582,-1.87 1.626,-1.87 1.079,0 1.673,0.857 1.673,1.87 m 0.935,-2.574 -0.99,0 0,0.803 -0.022,0 c -0.396,-0.583 -1.012,-0.979 -1.749,-0.979 -1.573,0 -2.464,1.309 -2.464,2.783 0,1.407 0.936,2.695 2.431,2.695 0.759,0 1.375,-0.396 1.782,-1.012 l 0.022,0 0,0.858 0.99,0 0,-5.148 z"
           style="fill:#231f20;fill-opacity:1;fill-rule:nonzero;stroke:none"
           id="path276"
           inkscape:connector-curvature="0" /><path
           d="m 469.865,635.463 0.022,0 c 0.308,0.55 0.925,0.847 1.551,0.847 1.453,0 1.826,-0.979 1.826,-2.233 l 0,-3.069 -0.99,0 0,2.948 c 0,0.88 -0.121,1.474 -1.133,1.474 -1.276,0 -1.276,-1.122 -1.276,-2.057 l 0,-2.365 -0.99,0 0,5.148 0.99,0 0,-0.693 z"
           style="fill:#231f20;fill-opacity:1;fill-rule:nonzero;stroke:none"
           id="path278"
           inkscape:connector-curvature="0" /><path
           d="m 478.522,633.582 c 0,1.001 -0.604,1.848 -1.672,1.848 -1.023,0 -1.627,-0.891 -1.627,-1.848 0,-0.968 0.582,-1.87 1.627,-1.87 1.078,0 1.672,0.857 1.672,1.87 m -0.055,-1.771 -0.022,0 c -0.396,-0.583 -1.023,-0.979 -1.749,-0.979 -1.584,0 -2.464,1.309 -2.464,2.783 0,1.407 0.936,2.695 2.42,2.695 0.77,0 1.386,-0.396 1.793,-1.012 l 0.022,0 0,5.258 0.99,0 0,-9.548 -0.99,0 0,0.803 z"
           style="fill:#231f20;fill-opacity:1;fill-rule:nonzero;stroke:none"
           id="path280"
           inkscape:connector-curvature="0" /><path
           d="m 485.991,634.979 c -0.121,0.252 -0.374,0.451 -0.66,0.451 -0.274,0 -0.539,-0.22 -0.539,-0.506 0,-0.451 0.595,-0.65 1.199,-0.924 0.605,-0.275 1.189,-0.649 1.189,-1.463 0,-0.979 -0.815,-1.705 -1.772,-1.705 -0.748,0 -1.507,0.429 -1.782,1.154 l 0.847,0.386 c 0.209,-0.386 0.463,-0.66 0.935,-0.66 0.418,0 0.781,0.286 0.781,0.726 0,0.275 -0.132,0.407 -0.363,0.561 l -0.968,0.517 c -0.572,0.308 -0.99,0.593 -0.99,1.297 0,0.836 0.683,1.497 1.519,1.497 0.627,0 1.133,-0.341 1.407,-0.902 l -0.803,-0.429 z"
           style="fill:#231f20;fill-opacity:1;fill-rule:nonzero;stroke:none"
           id="path282"
           inkscape:connector-curvature="0" /><path
           d="m 489.279,631.008 -0.989,0 0,4.223 -0.539,0 0,0.925 0.539,0 0,1.969 0.989,0 0,-1.969 0.969,0 0,-0.925 -0.969,0 0,-4.223 z"
           style="fill:#231f20;fill-opacity:1;fill-rule:nonzero;stroke:none"
           id="path284"
           inkscape:connector-curvature="0" /><path
           d="m 494.682,633.582 c 0,1.001 -0.606,1.848 -1.673,1.848 -1.023,0 -1.628,-0.891 -1.628,-1.848 0,-0.968 0.583,-1.87 1.628,-1.87 1.078,0 1.673,0.857 1.673,1.87 m 0.933,-2.574 -0.989,0 0,0.803 -0.022,0 c -0.396,-0.583 -1.012,-0.979 -1.749,-0.979 -1.574,0 -2.464,1.309 -2.464,2.783 0,1.407 0.935,2.695 2.431,2.695 0.759,0 1.375,-0.396 1.782,-1.012 l 0.022,0 0,0.858 0.989,0 0,-5.148 z"
           style="fill:#231f20;fill-opacity:1;fill-rule:nonzero;stroke:none"
           id="path286"
           inkscape:connector-curvature="0" /><path
           d="m 498.035,631.008 -0.989,0 0,4.223 -0.539,0 0,0.925 0.539,0 0,1.969 0.989,0 0,-1.969 0.969,0 0,-0.925 -0.969,0 0,-4.223 z"
           style="fill:#231f20;fill-opacity:1;fill-rule:nonzero;stroke:none"
           id="path288"
           inkscape:connector-curvature="0" /><path
           d="m 500.753,631.008 -0.99,0 0,5.148 0.99,0 0,-5.148 z m 0.186,7.502 c 0,-0.374 -0.307,-0.671 -0.681,-0.671 -0.374,0 -0.682,0.297 -0.682,0.671 0,0.385 0.308,0.693 0.682,0.693 0.374,0 0.681,-0.308 0.681,-0.693"
           style="fill:#231f20;fill-opacity:1;fill-rule:nonzero;stroke:none"
           id="path290"
           inkscape:connector-curvature="0" /><path
           d="m 504.404,634.979 c -0.121,0.252 -0.373,0.451 -0.66,0.451 -0.274,0 -0.539,-0.22 -0.539,-0.506 0,-0.451 0.595,-0.65 1.199,-0.924 0.606,-0.275 1.189,-0.649 1.189,-1.463 0,-0.979 -0.814,-1.705 -1.771,-1.705 -0.748,0 -1.508,0.429 -1.783,1.154 l 0.848,0.386 c 0.209,-0.386 0.462,-0.66 0.935,-0.66 0.418,0 0.781,0.286 0.781,0.726 0,0.275 -0.132,0.407 -0.363,0.561 l -0.969,0.517 c -0.572,0.308 -0.99,0.593 -0.99,1.297 0,0.836 0.683,1.497 1.519,1.497 0.627,0 1.133,-0.341 1.407,-0.902 l -0.803,-0.429 z"
           style="fill:#231f20;fill-opacity:1;fill-rule:nonzero;stroke:none"
           id="path292"
           inkscape:connector-curvature="0" /><path
           d="m 507.693,631.008 -0.99,0 0,4.223 -0.539,0 0,0.925 0.539,0 0,1.969 0.99,0 0,-1.969 0.969,0 0,-0.925 -0.969,0 0,-4.223 z"
           style="fill:#231f20;fill-opacity:1;fill-rule:nonzero;stroke:none"
           id="path294"
           inkscape:connector-curvature="0" /><path
           d="m 510.41,631.008 -0.99,0 0,5.148 0.99,0 0,-5.148 z m 0.188,7.502 c 0,-0.374 -0.309,-0.671 -0.682,-0.671 -0.375,0 -0.683,0.297 -0.683,0.671 0,0.385 0.308,0.693 0.683,0.693 0.373,0 0.682,-0.308 0.682,-0.693"
           style="fill:#231f20;fill-opacity:1;fill-rule:nonzero;stroke:none"
           id="path296"
           inkscape:connector-curvature="0" /><path
           d="m 515.778,634.692 c -0.395,0.452 -0.88,0.694 -1.473,0.694 -0.969,0 -1.717,-0.859 -1.717,-1.804 0,-1.057 0.738,-1.826 1.783,-1.826 0.571,0 1.033,0.264 1.407,0.682 l 0,-1.265 c -0.45,-0.242 -0.901,-0.341 -1.419,-0.341 -1.517,0 -2.76,1.166 -2.76,2.706 0,1.595 1.231,2.772 2.815,2.772 0.463,0 0.969,-0.11 1.364,-0.341 l 0,-1.277 z"
           style="fill:#231f20;fill-opacity:1;fill-rule:nonzero;stroke:none"
           id="path298"
           inkscape:connector-curvature="0" /><path
           d="m 518.914,634.979 c -0.121,0.252 -0.375,0.451 -0.66,0.451 -0.275,0 -0.539,-0.22 -0.539,-0.506 0,-0.451 0.594,-0.65 1.199,-0.924 0.605,-0.275 1.188,-0.649 1.188,-1.463 0,-0.979 -0.815,-1.705 -1.772,-1.705 -0.748,0 -1.506,0.429 -1.781,1.154 l 0.847,0.386 c 0.208,-0.386 0.461,-0.66 0.934,-0.66 0.418,0 0.781,0.286 0.781,0.726 0,0.275 -0.132,0.407 -0.363,0.561 l -0.967,0.517 c -0.572,0.308 -0.99,0.593 -0.99,1.297 0,0.836 0.682,1.497 1.518,1.497 0.627,0 1.132,-0.341 1.408,-0.902 l -0.803,-0.429 z"
           style="fill:#231f20;fill-opacity:1;fill-rule:nonzero;stroke:none"
           id="path300"
           inkscape:connector-curvature="0" /><path
           d="m 386.521,701.854 c -2.591,2.303 -6.143,3.551 -9.55,3.551 -8.114,0 -14.305,-6.768 -14.305,-14.783 0,-7.921 6.145,-14.689 14.208,-14.689 3.552,0 6.96,1.344 9.647,3.744 l 0,-5.328 c -2.783,-1.632 -6.335,-2.544 -9.503,-2.544 -10.321,0 -18.864,8.208 -18.864,18.673 0,10.704 8.592,19.056 19.248,19.056 3.168,0 6.384,-0.768 9.119,-2.449 l 0,-5.231 z"
           style="fill:#000000;fill-opacity:1;fill-rule:nonzero;stroke:none"
           id="path302"
           inkscape:connector-curvature="0" /><path
           d="m 413.258,694.173 0,14.593 4.512,0 0,-36.193 -4.512,0 0,17.376 -17.233,0 0,-17.376 -4.511,0 0,36.193 4.511,0 0,-14.593 17.233,0 z"
           style="fill:#000000;fill-opacity:1;fill-rule:nonzero;stroke:none"
           id="path304"
           inkscape:connector-curvature="0" /><path
           d="m 428.665,672.573 -4.513,0 0,36.192 4.513,0 0,-36.192 z"
           style="fill:#000000;fill-opacity:1;fill-rule:nonzero;stroke:none"
           id="path306"
           inkscape:connector-curvature="0" /><path
           d="m 461.785,701.854 c -2.592,2.303 -6.144,3.551 -9.553,3.551 -8.111,0 -14.303,-6.768 -14.303,-14.783 0,-7.921 6.143,-14.689 14.208,-14.689 3.551,0 6.96,1.344 9.648,3.744 l 0,-5.328 c -2.784,-1.632 -6.336,-2.544 -9.504,-2.544 -10.32,0 -18.865,8.208 -18.865,18.673 0,10.704 8.593,19.056 19.248,19.056 3.168,0 6.385,-0.768 9.121,-2.449 l 0,-5.231 z"
           style="fill:#000000;fill-opacity:1;fill-rule:nonzero;stroke:none"
           id="path308"
           inkscape:connector-curvature="0" /><path
           d="m 480.601,700.414 -6.433,-14.641 12.865,0 -6.432,14.641 z m -8.304,-18.768 -4.129,-9.073 -4.848,0 17.281,37.729 17.28,-37.729 -4.848,0 -4.129,9.073 -16.607,0 z"
           style="fill:#000000;fill-opacity:1;fill-rule:nonzero;stroke:none"
           id="path310"
           inkscape:connector-curvature="0" /><path
           d="m 516.984,701.901 c -1.343,2.256 -3.072,3.409 -5.808,3.409 -2.879,0 -6.047,-1.969 -6.047,-5.137 0,-2.832 2.783,-4.319 5.039,-5.184 l 2.592,-1.008 c 5.136,-2.016 8.976,-4.848 8.976,-10.896 0,-6.576 -5.088,-11.28 -11.568,-11.28 -5.855,0 -10.416,4.32 -11.184,10.128 l 4.561,0.961 c -0.049,-3.985 3.119,-6.865 7.008,-6.865 3.887,0 6.672,3.264 6.672,7.056 0,3.888 -3.121,5.568 -6.241,6.864 l -2.496,1.056 c -4.128,1.776 -7.872,4.128 -7.872,9.168 0,5.856 5.185,9.361 10.656,9.361 4.033,0 7.344,-1.969 9.312,-5.472 l -3.6,-2.161 z"
           style="fill:#000000;fill-opacity:1;fill-rule:nonzero;stroke:none"
           id="path312"
           inkscape:connector-curvature="0" /><path
           d="m 391.307,651.714 c -21.427,0 -38.859,17.432 -38.859,38.859 0,21.428 17.432,38.861 38.859,38.861 14.156,0 26.564,-7.612 33.358,-18.955 l 3.458,0 c -7.092,13.065 -20.935,21.955 -36.816,21.955 -23.081,0 -41.859,-18.779 -41.859,-41.861 0,-23.081 18.778,-41.859 41.859,-41.859 16.027,0 29.972,9.058 37.004,22.32 l -3.435,0 c -6.745,-11.543 -19.263,-19.32 -33.569,-19.32"
           style="fill:#808183;fill-opacity:1;fill-rule:nonzero;stroke:none"
           id="path314"
           inkscape:connector-curvature="0" /><path
           d="m 386.246,656.774 c -18.637,0 -33.798,15.163 -33.798,33.799 0,18.637 15.161,33.799 33.798,33.799 11.199,0 21.138,-5.479 27.291,-13.893 l 3.635,0 c -6.559,10.153 -17.967,16.893 -30.926,16.893 -20.291,0 -36.798,-16.508 -36.798,-36.799 0,-20.291 16.507,-36.799 36.798,-36.799 13.115,0 24.643,6.903 31.161,17.26 l -3.608,0 c -6.131,-8.62 -16.193,-14.26 -27.553,-14.26"
           style="fill:#9c9ea0;fill-opacity:1;fill-rule:nonzero;stroke:none"
           id="path316"
           inkscape:connector-curvature="0" /><path
           d="m 376.974,666.188 c -13.544,0 -24.564,11.019 -24.564,24.563 0,13.544 11.02,24.562 24.564,24.562 5.469,0 10.526,-1.798 14.614,-4.834 l 4.606,0 c -4.969,4.843 -11.751,7.834 -19.22,7.834 -15.199,0 -27.564,-12.364 -27.564,-27.562 0,-15.198 12.365,-27.563 27.564,-27.563 7.475,0 14.262,2.997 19.233,7.846 l -4.603,0 c -4.09,-3.042 -9.153,-4.846 -14.63,-4.846"
           style="fill:#bbbdbf;fill-opacity:1;fill-rule:nonzero;stroke:none"
           id="path318"
           inkscape:connector-curvature="0" /></g></g></g></svg>