<?xml version="1.0" encoding="UTF-8" standalone="no"?>
<!-- Created with Inkscape (http://www.inkscape.org/) -->

<svg
   xmlns:dc="http://purl.org/dc/elements/1.1/"
   xmlns:cc="http://creativecommons.org/ns#"
   xmlns:rdf="http://www.w3.org/1999/02/22-rdf-syntax-ns#"
   xmlns:svg="http://www.w3.org/2000/svg"
   xmlns="http://www.w3.org/2000/svg"
   xmlns:sodipodi="http://sodipodi.sourceforge.net/DTD/sodipodi-0.dtd"
   xmlns:inkscape="http://www.inkscape.org/namespaces/inkscape"
   id="svg3102"
   version="1.1"
   inkscape:version="0.48.4 r9939"
   width="744.095"
   height="1052.3625"
   xml:space="preserve"
   sodipodi:docname="ChicasLogo4NewNameOutlines.ai"><metadata
     id="metadata3108"><rdf:RDF><cc:Work
         rdf:about=""><dc:format>image/svg+xml</dc:format><dc:type
           rdf:resource="http://purl.org/dc/dcmitype/StillImage" /><dc:title></dc:title></cc:Work></rdf:RDF></metadata><defs
     id="defs3106"><clipPath
       clipPathUnits="userSpaceOnUse"
       id="clipPath3116"><path
         d="m 0,841.89 595.276,0 L 595.276,0 0,0 0,841.89 z"
         id="path3118" /></clipPath><clipPath
       clipPathUnits="userSpaceOnUse"
       id="clipPath3242"><path
         d="m 0,841.89 595.276,0 L 595.276,0 0,0 0,841.89 z"
         id="path3244" /></clipPath><clipPath
       clipPathUnits="userSpaceOnUse"
       id="clipPath3268"><path
         d="m 0,841.89 595.276,0 L 595.276,0 0,0 0,841.89 z"
         id="path3270" /></clipPath><clipPath
       clipPathUnits="userSpaceOnUse"
       id="clipPath3294"><path
         d="m 0,841.89 595.276,0 L 595.276,0 0,0 0,841.89 z"
         id="path3296" /></clipPath></defs><sodipodi:namedview
     pagecolor="#ffffff"
     bordercolor="#666666"
     borderopacity="1"
     objecttolerance="10"
     gridtolerance="10"
     guidetolerance="10"
     inkscape:pageopacity="0"
     inkscape:pageshadow="2"
     inkscape:window-width="1226"
     inkscape:window-height="856"
     id="namedview3104"
     showgrid="false"
     inkscape:zoom="0.64426466"
     inkscape:cx="372.04749"
     inkscape:cy="526.18127"
     inkscape:window-x="1315"
     inkscape:window-y="59"
     inkscape:window-maximized="0"
     inkscape:current-layer="g3110" /><g
     id="g3110"
     inkscape:groupmode="layer"
     inkscape:label="ChicasLogo4NewNameOutlines"
     transform="matrix(1.25,0,0,-1.25,0,1052.3625)"><g
       id="colour_lettering"
       inkscape:label="#g3112"><g
         id="g3114"
         clip-path="url(#clipPath3116)"><path
           d="m 194.508,661.093 c -0.396,0.451 -0.88,0.693 -1.474,0.693 -0.968,0 -1.716,-0.858 -1.716,-1.804 0,-1.056 0.737,-1.826 1.782,-1.826 0.572,0 1.034,0.264 1.408,0.682 l 0,-1.265 c -0.451,-0.242 -0.902,-0.341 -1.419,-0.341 -1.518,0 -2.761,1.166 -2.761,2.706 0,1.595 1.232,2.772 2.816,2.772 0.462,0 0.968,-0.109 1.364,-0.341 l 0,-1.276 z"
           style="fill:#231f20;fill-opacity:1;fill-rule:nonzero;stroke:none"
           id="path3120" /><path
           d="m 199.106,660.565 c -0.121,0.77 -0.627,1.288 -1.419,1.288 -0.77,0 -1.342,-0.551 -1.463,-1.288 l 2.882,0 z m -2.937,-0.748 c 0.011,-0.879 0.605,-1.705 1.551,-1.705 0.759,0 1.166,0.385 1.54,1.001 l 0.836,-0.472 c -0.484,-0.892 -1.386,-1.409 -2.387,-1.409 -1.573,0 -2.53,1.188 -2.53,2.706 0,1.584 0.847,2.772 2.508,2.772 1.639,0 2.409,-1.21 2.409,-2.739 l 0,-0.154 -3.927,0 z"
           style="fill:#231f20;fill-opacity:1;fill-rule:nonzero;stroke:none"
           id="path3122" /><path
           d="m 201.933,661.863 0.022,0 c 0.308,0.55 0.924,0.847 1.551,0.847 1.452,0 1.826,-0.979 1.826,-2.232 l 0,-3.07 -0.99,0 0,2.948 c 0,0.88 -0.121,1.474 -1.134,1.474 -1.275,0 -1.275,-1.122 -1.275,-2.057 l 0,-2.365 -0.99,0 0,5.149 0.99,0 0,-0.694 z"
           style="fill:#231f20;fill-opacity:1;fill-rule:nonzero;stroke:none"
           id="path3124" /><path
           d="m 207.829,657.408 -0.99,0 0,4.224 -0.539,0 0,0.925 0.539,0 0,1.968 0.99,0 0,-1.968 0.968,0 0,-0.925 -0.968,0 0,-4.224 z"
           style="fill:#231f20;fill-opacity:1;fill-rule:nonzero;stroke:none"
           id="path3126" /><path
           d="m 210.392,661.72 0.033,0 c 0.242,0.605 0.748,0.99 1.408,0.99 0.286,0 0.572,-0.099 0.814,-0.253 l -0.451,-0.902 c -0.176,0.154 -0.374,0.21 -0.605,0.21 -1.067,0 -1.199,-0.991 -1.199,-1.827 l 0,-2.53 -0.99,0 0,5.149 0.99,0 0,-0.837 z"
           style="fill:#231f20;fill-opacity:1;fill-rule:nonzero;stroke:none"
           id="path3128" /><path
           d="m 216.728,660.565 c -0.122,0.77 -0.627,1.288 -1.419,1.288 -0.77,0 -1.342,-0.551 -1.463,-1.288 l 2.882,0 z m -2.937,-0.748 c 0.011,-0.879 0.605,-1.705 1.551,-1.705 0.759,0 1.166,0.385 1.54,1.001 l 0.836,-0.472 c -0.485,-0.892 -1.386,-1.409 -2.387,-1.409 -1.573,0 -2.53,1.188 -2.53,2.706 0,1.584 0.846,2.772 2.508,2.772 1.639,0 2.409,-1.21 2.409,-2.739 l 0,-0.154 -3.927,0 z"
           style="fill:#231f20;fill-opacity:1;fill-rule:nonzero;stroke:none"
           id="path3130" /><path
           d="m 224.295,665.955 c -0.197,0.088 -0.45,0.209 -0.66,0.209 -0.703,0 -0.703,-0.891 -0.703,-1.396 l 0,-2.211 1.363,0 0,-0.925 -1.363,0 0,-4.224 -0.991,0 0,4.224 -0.45,0 0,0.925 0.45,0 0,2.507 c 0,1.123 0.386,2.024 1.662,2.024 0.242,0 0.473,-0.044 0.692,-0.132 l 0,-1.001 z"
           style="fill:#231f20;fill-opacity:1;fill-rule:nonzero;stroke:none"
           id="path3132" /><path
           d="m 225.296,659.971 c 0,-0.968 0.782,-1.793 1.76,-1.793 0.979,0 1.76,0.825 1.76,1.793 0,0.979 -0.781,1.794 -1.76,1.794 -0.978,0 -1.76,-0.815 -1.76,-1.794 m 4.51,0 c 0,-1.551 -1.21,-2.739 -2.75,-2.739 -1.539,0 -2.749,1.188 -2.749,2.739 0,1.551 1.21,2.739 2.749,2.739 1.54,0 2.75,-1.188 2.75,-2.739"
           style="fill:#231f20;fill-opacity:1;fill-rule:nonzero;stroke:none"
           id="path3134" /><path
           d="m 231.764,661.72 0.033,0 c 0.243,0.605 0.748,0.99 1.409,0.99 0.285,0 0.571,-0.099 0.814,-0.253 l -0.452,-0.902 c -0.176,0.154 -0.374,0.21 -0.605,0.21 -1.067,0 -1.199,-0.991 -1.199,-1.827 l 0,-2.53 -0.99,0 0,5.149 0.99,0 0,-0.837 z"
           style="fill:#231f20;fill-opacity:1;fill-rule:nonzero;stroke:none"
           id="path3136" /><path
           d="m 150.607,653.756 0,-5.093 0.022,0 c 0.309,0.55 0.925,0.847 1.552,0.847 1.451,0 1.825,-0.979 1.825,-2.233 l 0,-3.069 -0.989,0 0,2.948 c 0,0.88 -0.121,1.474 -1.134,1.474 -1.276,0 -1.276,-1.122 -1.276,-2.057 l 0,-2.365 -0.989,0 0,9.548 0.989,0 z"
           style="fill:#231f20;fill-opacity:1;fill-rule:nonzero;stroke:none"
           id="path3138" /><path
           d="m 158.901,647.365 c -0.121,0.77 -0.627,1.287 -1.419,1.287 -0.77,0 -1.341,-0.55 -1.462,-1.287 l 2.881,0 z m -2.937,-0.748 c 0.012,-0.88 0.605,-1.705 1.552,-1.705 0.758,0 1.166,0.385 1.54,1.001 l 0.836,-0.473 c -0.485,-0.891 -1.387,-1.408 -2.388,-1.408 -1.572,0 -2.529,1.188 -2.529,2.706 0,1.584 0.846,2.772 2.507,2.772 1.64,0 2.41,-1.21 2.41,-2.739 l 0,-0.154 -3.928,0 z"
           style="fill:#231f20;fill-opacity:1;fill-rule:nonzero;stroke:none"
           id="path3140" /><path
           d="m 164.632,646.782 c 0,1.001 -0.605,1.848 -1.672,1.848 -1.023,0 -1.628,-0.891 -1.628,-1.848 0,-0.968 0.583,-1.87 1.628,-1.87 1.078,0 1.672,0.858 1.672,1.87 m 0.935,-2.574 -0.99,0 0,0.803 -0.022,0 c -0.396,-0.583 -1.012,-0.979 -1.749,-0.979 -1.573,0 -2.464,1.309 -2.464,2.783 0,1.408 0.935,2.695 2.431,2.695 0.759,0 1.375,-0.396 1.782,-1.012 l 0.022,0 0,0.858 0.99,0 0,-5.148 z"
           style="fill:#231f20;fill-opacity:1;fill-rule:nonzero;stroke:none"
           id="path3142" /><path
           d="m 167.888,644.208 -0.99,0 0,9.548 0.99,0 0,-9.548 z"
           style="fill:#231f20;fill-opacity:1;fill-rule:nonzero;stroke:none"
           id="path3144" /><path
           d="m 170.429,644.208 -0.99,0 0,4.224 -0.539,0 0,0.924 0.539,0 0,1.969 0.99,0 0,-1.969 0.968,0 0,-0.924 -0.968,0 0,-4.224 z"
           style="fill:#231f20;fill-opacity:1;fill-rule:nonzero;stroke:none"
           id="path3146" /><path
           d="m 172.926,653.756 0,-5.093 0.022,0 c 0.308,0.55 0.924,0.847 1.551,0.847 1.452,0 1.826,-0.979 1.826,-2.233 l 0,-3.069 -0.99,0 0,2.948 c 0,0.88 -0.121,1.474 -1.133,1.474 -1.276,0 -1.276,-1.122 -1.276,-2.057 l 0,-2.365 -0.99,0 0,9.548 0.99,0 z"
           style="fill:#231f20;fill-opacity:1;fill-rule:nonzero;stroke:none"
           id="path3148" /><path
           d="m 182.078,644.208 -0.99,0 0,5.148 0.99,0 0,-5.148 z m 0.187,7.502 c 0,-0.374 -0.308,-0.671 -0.682,-0.671 -0.374,0 -0.682,0.297 -0.682,0.671 0,0.385 0.308,0.693 0.682,0.693 0.374,0 0.682,-0.308 0.682,-0.693"
           style="fill:#231f20;fill-opacity:1;fill-rule:nonzero;stroke:none"
           id="path3150" /><path
           d="m 184.652,648.663 0.022,0 c 0.308,0.55 0.924,0.847 1.551,0.847 1.452,0 1.826,-0.979 1.826,-2.233 l 0,-3.069 -0.99,0 0,2.948 c 0,0.88 -0.121,1.474 -1.133,1.474 -1.276,0 -1.276,-1.122 -1.276,-2.057 l 0,-2.365 -0.99,0 0,5.148 0.99,0 0,-0.693 z"
           style="fill:#231f20;fill-opacity:1;fill-rule:nonzero;stroke:none"
           id="path3152" /><path
           d="m 191.967,652.755 c -0.198,0.088 -0.451,0.209 -0.66,0.209 -0.704,0 -0.704,-0.891 -0.704,-1.397 l 0,-2.211 1.364,0 0,-0.924 -1.364,0 0,-4.224 -0.99,0 0,4.224 -0.451,0 0,0.924 0.451,0 0,2.508 c 0,1.122 0.385,2.024 1.661,2.024 0.242,0 0.473,-0.044 0.693,-0.132 l 0,-1.001 z"
           style="fill:#231f20;fill-opacity:1;fill-rule:nonzero;stroke:none"
           id="path3154" /><path
           d="m 192.968,646.771 c 0,-0.968 0.781,-1.793 1.76,-1.793 0.979,0 1.76,0.825 1.76,1.793 0,0.979 -0.781,1.793 -1.76,1.793 -0.979,0 -1.76,-0.814 -1.76,-1.793 m 4.51,0 c 0,-1.551 -1.21,-2.739 -2.75,-2.739 -1.54,0 -2.75,1.188 -2.75,2.739 0,1.551 1.21,2.739 2.75,2.739 1.54,0 2.75,-1.188 2.75,-2.739"
           style="fill:#231f20;fill-opacity:1;fill-rule:nonzero;stroke:none"
           id="path3156" /><path
           d="m 199.436,648.52 0.033,0 c 0.242,0.605 0.748,0.99 1.408,0.99 0.286,0 0.572,-0.099 0.814,-0.253 l -0.451,-0.902 c -0.176,0.154 -0.374,0.209 -0.605,0.209 -1.067,0 -1.199,-0.99 -1.199,-1.826 l 0,-2.53 -0.99,0 0,5.148 0.99,0 0,-0.836 z"
           style="fill:#231f20;fill-opacity:1;fill-rule:nonzero;stroke:none"
           id="path3158" /><path
           d="m 203.286,648.707 0.022,0 c 0.285,0.451 0.802,0.803 1.363,0.803 0.671,0 1.156,-0.341 1.485,-0.913 0.32,0.549 0.935,0.913 1.584,0.913 1.353,0 1.705,-1.056 1.705,-2.222 l 0,-3.08 -0.989,0 0,2.915 c 0,0.66 -0.088,1.507 -0.957,1.507 -1.057,0 -1.134,-1.1 -1.134,-1.892 l 0,-2.53 -0.99,0 0,2.728 c 0,0.671 -0.033,1.694 -0.945,1.694 -1.056,0 -1.144,-1.089 -1.144,-1.892 l 0,-2.53 -0.991,0 0,5.148 0.991,0 0,-0.649 z"
           style="fill:#231f20;fill-opacity:1;fill-rule:nonzero;stroke:none"
           id="path3160" /><path
           d="m 214.66,646.782 c 0,1.001 -0.605,1.848 -1.673,1.848 -1.023,0 -1.628,-0.891 -1.628,-1.848 0,-0.968 0.583,-1.87 1.628,-1.87 1.078,0 1.673,0.858 1.673,1.87 m 0.934,-2.574 -0.99,0 0,0.803 -0.021,0 c -0.396,-0.583 -1.013,-0.979 -1.75,-0.979 -1.573,0 -2.463,1.309 -2.463,2.783 0,1.408 0.935,2.695 2.43,2.695 0.76,0 1.375,-0.396 1.783,-1.012 l 0.021,0 0,0.858 0.99,0 0,-5.148 z"
           style="fill:#231f20;fill-opacity:1;fill-rule:nonzero;stroke:none"
           id="path3162" /><path
           d="m 218.015,644.208 -0.99,0 0,4.224 -0.539,0 0,0.924 0.539,0 0,1.969 0.99,0 0,-1.969 0.968,0 0,-0.924 -0.968,0 0,-4.224 z"
           style="fill:#231f20;fill-opacity:1;fill-rule:nonzero;stroke:none"
           id="path3164" /><path
           d="m 220.731,644.208 -0.99,0 0,5.148 0.99,0 0,-5.148 z m 0.187,7.502 c 0,-0.374 -0.308,-0.671 -0.682,-0.671 -0.374,0 -0.682,0.297 -0.682,0.671 0,0.385 0.308,0.693 0.682,0.693 0.374,0 0.682,-0.308 0.682,-0.693"
           style="fill:#231f20;fill-opacity:1;fill-rule:nonzero;stroke:none"
           id="path3166" /><path
           d="m 226.099,647.893 c -0.396,0.451 -0.88,0.693 -1.474,0.693 -0.968,0 -1.716,-0.858 -1.716,-1.804 0,-1.056 0.737,-1.826 1.782,-1.826 0.572,0 1.034,0.264 1.408,0.682 l 0,-1.265 c -0.451,-0.242 -0.902,-0.341 -1.419,-0.341 -1.518,0 -2.761,1.166 -2.761,2.706 0,1.595 1.232,2.772 2.816,2.772 0.462,0 0.968,-0.11 1.364,-0.341 l 0,-1.276 z"
           style="fill:#231f20;fill-opacity:1;fill-rule:nonzero;stroke:none"
           id="path3168" /><path
           d="m 229.234,648.179 c -0.121,0.253 -0.374,0.451 -0.66,0.451 -0.275,0 -0.539,-0.22 -0.539,-0.506 0,-0.451 0.594,-0.649 1.199,-0.924 0.605,-0.275 1.188,-0.649 1.188,-1.463 0,-0.979 -0.814,-1.705 -1.771,-1.705 -0.748,0 -1.506,0.429 -1.782,1.156 l 0.847,0.384 c 0.209,-0.384 0.462,-0.66 0.935,-0.66 0.418,0 0.781,0.286 0.781,0.726 0,0.275 -0.132,0.407 -0.363,0.561 l -0.967,0.517 c -0.573,0.308 -0.991,0.594 -0.991,1.298 0,0.836 0.682,1.496 1.518,1.496 0.627,0 1.133,-0.341 1.408,-0.902 l -0.803,-0.429 z"
           style="fill:#231f20;fill-opacity:1;fill-rule:nonzero;stroke:none"
           id="path3170" /><path
           d="m 233.371,645.176 -1.463,-2.937 -0.606,0.253 1.211,3.025 0.858,-0.341 z"
           style="fill:#231f20;fill-opacity:1;fill-rule:nonzero;stroke:none"
           id="path3172" /><path
           d="m 125.418,634.692 c -0.396,0.452 -0.88,0.694 -1.474,0.694 -0.968,0 -1.716,-0.859 -1.716,-1.804 0,-1.057 0.737,-1.826 1.782,-1.826 0.572,0 1.034,0.264 1.408,0.682 l 0,-1.265 c -0.451,-0.242 -0.902,-0.341 -1.419,-0.341 -1.518,0 -2.761,1.166 -2.761,2.706 0,1.595 1.232,2.772 2.816,2.772 0.462,0 0.968,-0.11 1.364,-0.341 l 0,-1.277 z"
           style="fill:#231f20;fill-opacity:1;fill-rule:nonzero;stroke:none"
           id="path3174" /><path
           d="m 127.013,633.57 c 0,-0.967 0.781,-1.793 1.76,-1.793 0.979,0 1.76,0.826 1.76,1.793 0,0.98 -0.781,1.794 -1.76,1.794 -0.979,0 -1.76,-0.814 -1.76,-1.794 m 4.51,0 c 0,-1.55 -1.21,-2.738 -2.75,-2.738 -1.54,0 -2.75,1.188 -2.75,2.738 0,1.552 1.21,2.74 2.75,2.74 1.54,0 2.75,-1.188 2.75,-2.74"
           style="fill:#231f20;fill-opacity:1;fill-rule:nonzero;stroke:none"
           id="path3176" /><path
           d="m 133.382,635.507 0.022,0 c 0.286,0.451 0.803,0.803 1.364,0.803 0.671,0 1.155,-0.341 1.485,-0.914 0.319,0.551 0.935,0.914 1.584,0.914 1.353,0 1.705,-1.056 1.705,-2.222 l 0,-3.08 -0.99,0 0,2.915 c 0,0.66 -0.088,1.507 -0.957,1.507 -1.056,0 -1.133,-1.1 -1.133,-1.892 l 0,-2.53 -0.99,0 0,2.727 c 0,0.672 -0.033,1.695 -0.946,1.695 -1.056,0 -1.144,-1.089 -1.144,-1.892 l 0,-2.53 -0.99,0 0,5.148 0.99,0 0,-0.649 z"
           style="fill:#231f20;fill-opacity:1;fill-rule:nonzero;stroke:none"
           id="path3178" /><path
           d="m 145.02,633.582 c 0,1.001 -0.605,1.848 -1.672,1.848 -1.023,0 -1.628,-0.891 -1.628,-1.848 0,-0.968 0.583,-1.87 1.628,-1.87 1.078,0 1.672,0.857 1.672,1.87 m -3.245,1.716 0.022,0 c 0.407,0.616 1.023,1.012 1.793,1.012 1.485,0 2.42,-1.288 2.42,-2.695 0,-1.474 -0.88,-2.783 -2.464,-2.783 -0.726,0 -1.353,0.396 -1.749,0.979 l -0.022,0 0,-3.751 -0.99,0 0,8.096 0.99,0 0,-0.858 z"
           style="fill:#231f20;fill-opacity:1;fill-rule:nonzero;stroke:none"
           id="path3180" /><path
           d="m 147.924,636.156 0,-2.849 c 0,-0.826 0.209,-1.551 1.188,-1.551 0.979,0 1.188,0.725 1.188,1.551 l 0,2.849 0.99,0 0,-2.959 c 0,-1.408 -0.66,-2.365 -2.178,-2.365 -1.518,0 -2.178,0.957 -2.178,2.365 l 0,2.959 0.99,0 z"
           style="fill:#231f20;fill-opacity:1;fill-rule:nonzero;stroke:none"
           id="path3182" /><path
           d="m 153.743,631.008 -0.99,0 0,4.223 -0.539,0 0,0.925 0.539,0 0,1.969 0.99,0 0,-1.969 0.968,0 0,-0.925 -0.968,0 0,-4.223 z"
           style="fill:#231f20;fill-opacity:1;fill-rule:nonzero;stroke:none"
           id="path3184" /><path
           d="m 156.46,631.008 -0.99,0 0,5.148 0.99,0 0,-5.148 z m 0.187,7.502 c 0,-0.374 -0.308,-0.671 -0.682,-0.671 -0.374,0 -0.682,0.297 -0.682,0.671 0,0.385 0.308,0.693 0.682,0.693 0.374,0 0.682,-0.308 0.682,-0.693"
           style="fill:#231f20;fill-opacity:1;fill-rule:nonzero;stroke:none"
           id="path3186" /><path
           d="m 159.034,635.463 0.022,0 c 0.308,0.55 0.924,0.847 1.551,0.847 1.452,0 1.826,-0.979 1.826,-2.233 l 0,-3.069 -0.99,0 0,2.948 c 0,0.88 -0.121,1.474 -1.133,1.474 -1.276,0 -1.276,-1.122 -1.276,-2.057 l 0,-2.365 -0.99,0 0,5.148 0.99,0 0,-0.693 z"
           style="fill:#231f20;fill-opacity:1;fill-rule:nonzero;stroke:none"
           id="path3188" /><path
           d="m 167.68,633.582 c 0,1.001 -0.605,1.848 -1.672,1.848 -1.023,0 -1.628,-0.891 -1.628,-1.848 0,-0.968 0.583,-1.87 1.628,-1.87 1.078,0 1.672,0.857 1.672,1.87 m 0.935,-2.476 c 0,-1.77 -0.506,-3.046 -2.508,-3.046 -1.43,0 -2.464,0.879 -2.486,2.332 l 0.99,0 c 0,-0.924 0.638,-1.453 1.54,-1.453 1.221,0 1.474,0.836 1.474,1.893 l 0,0.979 -0.022,0 c -0.396,-0.583 -1.023,-0.979 -1.749,-0.979 -1.584,0 -2.464,1.309 -2.464,2.783 0,1.407 0.935,2.695 2.42,2.695 0.77,0 1.386,-0.396 1.793,-1.035 l 0.022,0 0,0.881 0.99,0 0,-5.05 z"
           style="fill:#231f20;fill-opacity:1;fill-rule:nonzero;stroke:none"
           id="path3190" /><path
           d="m 171.882,631.976 -1.463,-2.937 -0.605,0.253 1.21,3.024 0.858,-0.34 z"
           style="fill:#231f20;fill-opacity:1;fill-rule:nonzero;stroke:none"
           id="path3192" /><path
           d="m 180.153,633.582 c 0,1.001 -0.605,1.848 -1.672,1.848 -1.023,0 -1.628,-0.891 -1.628,-1.848 0,-0.968 0.583,-1.87 1.628,-1.87 1.078,0 1.672,0.857 1.672,1.87 m 0.935,-2.574 -0.99,0 0,0.803 -0.022,0 c -0.396,-0.583 -1.012,-0.979 -1.749,-0.979 -1.573,0 -2.464,1.309 -2.464,2.783 0,1.407 0.935,2.695 2.431,2.695 0.759,0 1.375,-0.396 1.782,-1.012 l 0.022,0 0,0.858 0.99,0 0,-5.148 z"
           style="fill:#231f20;fill-opacity:1;fill-rule:nonzero;stroke:none"
           id="path3194" /><path
           d="m 183.365,635.463 0.022,0 c 0.308,0.55 0.925,0.847 1.551,0.847 1.452,0 1.826,-0.979 1.826,-2.233 l 0,-3.069 -0.99,0 0,2.948 c 0,0.88 -0.121,1.474 -1.133,1.474 -1.276,0 -1.276,-1.122 -1.276,-2.057 l 0,-2.365 -0.99,0 0,5.148 0.99,0 0,-0.693 z"
           style="fill:#231f20;fill-opacity:1;fill-rule:nonzero;stroke:none"
           id="path3196" /><path
           d="m 192.022,633.582 c 0,1.001 -0.605,1.848 -1.672,1.848 -1.023,0 -1.628,-0.891 -1.628,-1.848 0,-0.968 0.583,-1.87 1.628,-1.87 1.078,0 1.672,0.857 1.672,1.87 m -0.055,-1.771 -0.022,0 c -0.396,-0.583 -1.023,-0.979 -1.749,-0.979 -1.584,0 -2.464,1.309 -2.464,2.783 0,1.407 0.935,2.695 2.42,2.695 0.77,0 1.386,-0.396 1.793,-1.012 l 0.022,0 0,5.258 0.99,0 0,-9.548 -0.99,0 0,0.803 z"
           style="fill:#231f20;fill-opacity:1;fill-rule:nonzero;stroke:none"
           id="path3198" /><path
           d="m 199.491,634.979 c -0.121,0.252 -0.374,0.451 -0.66,0.451 -0.275,0 -0.539,-0.22 -0.539,-0.506 0,-0.451 0.594,-0.65 1.199,-0.924 0.605,-0.275 1.188,-0.649 1.188,-1.463 0,-0.979 -0.814,-1.705 -1.771,-1.705 -0.748,0 -1.507,0.429 -1.782,1.154 l 0.847,0.386 c 0.209,-0.386 0.462,-0.66 0.935,-0.66 0.418,0 0.781,0.286 0.781,0.726 0,0.275 -0.132,0.407 -0.363,0.561 l -0.968,0.517 c -0.572,0.308 -0.99,0.593 -0.99,1.297 0,0.836 0.682,1.497 1.518,1.497 0.627,0 1.133,-0.341 1.408,-0.902 l -0.803,-0.429 z"
           style="fill:#231f20;fill-opacity:1;fill-rule:nonzero;stroke:none"
           id="path3200" /><path
           d="m 202.78,631.008 -0.99,0 0,4.223 -0.539,0 0,0.925 0.539,0 0,1.969 0.99,0 0,-1.969 0.968,0 0,-0.925 -0.968,0 0,-4.223 z"
           style="fill:#231f20;fill-opacity:1;fill-rule:nonzero;stroke:none"
           id="path3202" /><path
           d="m 208.181,633.582 c 0,1.001 -0.605,1.848 -1.672,1.848 -1.023,0 -1.628,-0.891 -1.628,-1.848 0,-0.968 0.583,-1.87 1.628,-1.87 1.078,0 1.672,0.857 1.672,1.87 m 0.935,-2.574 -0.99,0 0,0.803 -0.022,0 c -0.396,-0.583 -1.012,-0.979 -1.749,-0.979 -1.573,0 -2.464,1.309 -2.464,2.783 0,1.407 0.935,2.695 2.431,2.695 0.759,0 1.375,-0.396 1.782,-1.012 l 0.022,0 0,0.858 0.99,0 0,-5.148 z"
           style="fill:#231f20;fill-opacity:1;fill-rule:nonzero;stroke:none"
           id="path3204" /><path
           d="m 211.536,631.008 -0.99,0 0,4.223 -0.539,0 0,0.925 0.539,0 0,1.969 0.99,0 0,-1.969 0.968,0 0,-0.925 -0.968,0 0,-4.223 z"
           style="fill:#231f20;fill-opacity:1;fill-rule:nonzero;stroke:none"
           id="path3206" /><path
           d="m 214.253,631.008 -0.99,0 0,5.148 0.99,0 0,-5.148 z m 0.187,7.502 c 0,-0.374 -0.308,-0.671 -0.682,-0.671 -0.374,0 -0.682,0.297 -0.682,0.671 0,0.385 0.308,0.693 0.682,0.693 0.374,0 0.682,-0.308 0.682,-0.693"
           style="fill:#231f20;fill-opacity:1;fill-rule:nonzero;stroke:none"
           id="path3208" /><path
           d="m 217.905,634.979 c -0.121,0.252 -0.374,0.451 -0.66,0.451 -0.275,0 -0.539,-0.22 -0.539,-0.506 0,-0.451 0.594,-0.65 1.199,-0.924 0.605,-0.275 1.188,-0.649 1.188,-1.463 0,-0.979 -0.814,-1.705 -1.771,-1.705 -0.748,0 -1.507,0.429 -1.782,1.154 l 0.847,0.386 c 0.209,-0.386 0.462,-0.66 0.935,-0.66 0.418,0 0.781,0.286 0.781,0.726 0,0.275 -0.132,0.407 -0.363,0.561 l -0.968,0.517 c -0.572,0.308 -0.99,0.593 -0.99,1.297 0,0.836 0.682,1.497 1.518,1.497 0.627,0 1.133,-0.341 1.408,-0.902 l -0.803,-0.429 z"
           style="fill:#231f20;fill-opacity:1;fill-rule:nonzero;stroke:none"
           id="path3210" /><path
           d="m 221.193,631.008 -0.989,0 0,4.223 -0.539,0 0,0.925 0.539,0 0,1.969 0.989,0 0,-1.969 0.969,0 0,-0.925 -0.969,0 0,-4.223 z"
           style="fill:#231f20;fill-opacity:1;fill-rule:nonzero;stroke:none"
           id="path3212" /><path
           d="m 223.911,631.008 -0.99,0 0,5.148 0.99,0 0,-5.148 z m 0.187,7.502 c 0,-0.374 -0.308,-0.671 -0.682,-0.671 -0.374,0 -0.683,0.297 -0.683,0.671 0,0.385 0.309,0.693 0.683,0.693 0.374,0 0.682,-0.308 0.682,-0.693"
           style="fill:#231f20;fill-opacity:1;fill-rule:nonzero;stroke:none"
           id="path3214" /><path
           d="m 229.278,634.692 c -0.396,0.452 -0.88,0.694 -1.473,0.694 -0.969,0 -1.717,-0.859 -1.717,-1.804 0,-1.057 0.738,-1.826 1.783,-1.826 0.571,0 1.033,0.264 1.407,0.682 l 0,-1.265 c -0.45,-0.242 -0.902,-0.341 -1.419,-0.341 -1.518,0 -2.76,1.166 -2.76,2.706 0,1.595 1.232,2.772 2.816,2.772 0.461,0 0.967,-0.11 1.363,-0.341 l 0,-1.277 z"
           style="fill:#231f20;fill-opacity:1;fill-rule:nonzero;stroke:none"
           id="path3216" /><path
           d="m 232.414,634.979 c -0.122,0.252 -0.374,0.451 -0.661,0.451 -0.274,0 -0.539,-0.22 -0.539,-0.506 0,-0.451 0.595,-0.65 1.2,-0.924 0.605,-0.275 1.188,-0.649 1.188,-1.463 0,-0.979 -0.814,-1.705 -1.771,-1.705 -0.748,0 -1.507,0.429 -1.783,1.154 l 0.848,0.386 c 0.208,-0.386 0.461,-0.66 0.935,-0.66 0.418,0 0.78,0.286 0.78,0.726 0,0.275 -0.132,0.407 -0.362,0.561 l -0.968,0.517 c -0.573,0.308 -0.99,0.593 -0.99,1.297 0,0.836 0.682,1.497 1.518,1.497 0.627,0 1.132,-0.341 1.407,-0.902 l -0.802,-0.429 z"
           style="fill:#231f20;fill-opacity:1;fill-rule:nonzero;stroke:none"
           id="path3218" /><path
           d="m 100.022,701.854 c -2.592,2.303 -6.144,3.551 -9.552,3.551 -8.112,0 -14.304,-6.768 -14.304,-14.783 0,-7.921 6.144,-14.689 14.208,-14.689 3.552,0 6.96,1.344 9.648,3.744 l 0,-5.328 c -2.784,-1.632 -6.336,-2.544 -9.504,-2.544 -10.32,0 -18.864,8.208 -18.864,18.673 0,10.704 8.592,19.056 19.248,19.056 3.168,0 6.384,-0.768 9.12,-2.449 l 0,-5.231 z"
           style="fill:#b5121b;fill-opacity:1;fill-rule:nonzero;stroke:none"
           id="path3220" /><path
           d="m 126.758,694.173 0,14.593 4.512,0 0,-36.193 -4.512,0 0,17.376 -17.233,0 0,-17.376 -4.511,0 0,36.193 4.511,0 0,-14.593 17.233,0 z"
           style="fill:#b5121b;fill-opacity:1;fill-rule:nonzero;stroke:none"
           id="path3222" /><path
           d="m 142.165,672.573 -4.512,0 0,36.192 4.512,0 0,-36.192 z"
           style="fill:#b5121b;fill-opacity:1;fill-rule:nonzero;stroke:none"
           id="path3224" /><path
           d="m 175.285,701.854 c -2.592,2.303 -6.144,3.551 -9.552,3.551 -8.112,0 -14.304,-6.768 -14.304,-14.783 0,-7.921 6.144,-14.689 14.208,-14.689 3.551,0 6.96,1.344 9.648,3.744 l 0,-5.328 c -2.784,-1.632 -6.336,-2.544 -9.504,-2.544 -10.321,0 -18.864,8.208 -18.864,18.673 0,10.704 8.592,19.056 19.248,19.056 3.168,0 6.384,-0.768 9.12,-2.449 l 0,-5.231 z"
           style="fill:#b5121b;fill-opacity:1;fill-rule:nonzero;stroke:none"
           id="path3226" /><path
           d="m 194.1,700.414 -6.432,-14.641 12.864,0 -6.432,14.641 z m -8.304,-18.768 -4.128,-9.073 -4.848,0 17.28,37.729 17.28,-37.729 -4.848,0 -4.128,9.073 -16.608,0 z"
           style="fill:#b5121b;fill-opacity:1;fill-rule:nonzero;stroke:none"
           id="path3228" /><path
           d="m 230.483,701.901 c -1.344,2.256 -3.072,3.409 -5.808,3.409 -2.88,0 -6.048,-1.969 -6.048,-5.137 0,-2.832 2.784,-4.319 5.04,-5.184 l 2.592,-1.008 c 5.137,-2.016 8.976,-4.848 8.976,-10.896 0,-6.576 -5.088,-11.28 -11.568,-11.28 -5.855,0 -10.416,4.32 -11.184,10.128 l 4.56,0.961 c -0.048,-3.985 3.12,-6.865 7.008,-6.865 3.888,0 6.673,3.264 6.673,7.056 0,3.888 -3.12,5.568 -6.241,6.864 l -2.496,1.056 c -4.128,1.776 -7.872,4.128 -7.872,9.168 0,5.856 5.184,9.361 10.656,9.361 4.032,0 7.344,-1.969 9.312,-5.472 l -3.6,-2.161 z"
           style="fill:#b5121b;fill-opacity:1;fill-rule:nonzero;stroke:none"
           id="path3230" /><path
           d="m 104.807,651.714 c -21.427,0 -38.859,17.432 -38.859,38.859 0,21.428 17.432,38.861 38.859,38.861 14.156,0 26.564,-7.612 33.358,-18.955 l 3.458,0 c -7.092,13.065 -20.935,21.955 -36.816,21.955 -23.081,0 -41.859,-18.779 -41.859,-41.861 0,-23.081 18.778,-41.859 41.859,-41.859 16.027,0 29.973,9.058 37.004,22.32 l -3.435,0 c -6.745,-11.543 -19.262,-19.32 -33.569,-19.32"
           style="fill:#808183;fill-opacity:1;fill-rule:nonzero;stroke:none"
           id="path3232" /><path
           d="m 99.746,656.774 c -18.636,0 -33.798,15.163 -33.798,33.799 0,18.637 15.162,33.799 33.798,33.799 11.199,0 21.138,-5.479 27.291,-13.893 l 3.634,0 c -6.558,10.153 -17.965,16.893 -30.925,16.893 -20.29,0 -36.798,-16.508 -36.798,-36.799 0,-20.291 16.508,-36.799 36.798,-36.799 13.116,0 24.643,6.903 31.161,17.26 l -3.608,0 c -6.132,-8.62 -16.193,-14.26 -27.553,-14.26"
           style="fill:#9c9ea0;fill-opacity:1;fill-rule:nonzero;stroke:none"
           id="path3234" /><path
           d="m 90.474,666.188 c -13.545,0 -24.564,11.019 -24.564,24.563 0,13.544 11.019,24.562 24.564,24.562 5.47,0 10.526,-1.798 14.613,-4.834 l 4.607,0 c -4.969,4.843 -11.75,7.834 -19.22,7.834 -15.199,0 -27.564,-12.364 -27.564,-27.562 0,-15.198 12.365,-27.563 27.564,-27.563 7.476,0 14.262,2.997 19.233,7.846 l -4.603,0 c -4.09,-3.042 -9.153,-4.846 -14.63,-4.846"
           style="fill:#bbbdbf;fill-opacity:1;fill-rule:nonzero;stroke:none"
           id="path3236" /></g></g><g
       id="colour_nolettering"
       inkscape:label="#g3238"><g
         id="g3240"
         clip-path="url(#clipPath3242)"><path
           d="m 100.022,518.854 c -2.592,2.303 -6.144,3.551 -9.552,3.551 -8.112,0 -14.304,-6.768 -14.304,-14.783 0,-7.921 6.144,-14.689 14.208,-14.689 3.552,0 6.96,1.344 9.648,3.744 l 0,-5.328 c -2.784,-1.632 -6.336,-2.544 -9.504,-2.544 -10.32,0 -18.864,8.208 -18.864,18.673 0,10.704 8.592,19.056 19.248,19.056 3.168,0 6.384,-0.768 9.12,-2.449 l 0,-5.231 z"
           style="fill:#b5121b;fill-opacity:1;fill-rule:nonzero;stroke:none"
           id="path3246" /><path
           d="m 126.758,511.173 0,14.593 4.512,0 0,-36.193 -4.512,0 0,17.376 -17.233,0 0,-17.376 -4.511,0 0,36.193 4.511,0 0,-14.593 17.233,0 z"
           style="fill:#b5121b;fill-opacity:1;fill-rule:nonzero;stroke:none"
           id="path3248" /><path
           d="m 142.165,489.573 -4.512,0 0,36.192 4.512,0 0,-36.192 z"
           style="fill:#b5121b;fill-opacity:1;fill-rule:nonzero;stroke:none"
           id="path3250" /><path
           d="m 175.285,518.854 c -2.592,2.303 -6.144,3.551 -9.552,3.551 -8.112,0 -14.304,-6.768 -14.304,-14.783 0,-7.921 6.144,-14.689 14.208,-14.689 3.551,0 6.96,1.344 9.648,3.744 l 0,-5.328 c -2.784,-1.632 -6.336,-2.544 -9.504,-2.544 -10.321,0 -18.864,8.208 -18.864,18.673 0,10.704 8.592,19.056 19.248,19.056 3.168,0 6.384,-0.768 9.12,-2.449 l 0,-5.231 z"
           style="fill:#b5121b;fill-opacity:1;fill-rule:nonzero;stroke:none"
           id="path3252" /><path
           d="m 194.1,517.414 -6.432,-14.641 12.864,0 -6.432,14.641 z m -8.304,-18.768 -4.128,-9.073 -4.848,0 17.28,37.729 17.28,-37.729 -4.848,0 -4.128,9.073 -16.608,0 z"
           style="fill:#b5121b;fill-opacity:1;fill-rule:nonzero;stroke:none"
           id="path3254" /><path
           d="m 230.483,518.901 c -1.344,2.256 -3.072,3.409 -5.808,3.409 -2.88,0 -6.048,-1.969 -6.048,-5.137 0,-2.832 2.784,-4.319 5.04,-5.184 l 2.592,-1.008 c 5.137,-2.016 8.976,-4.848 8.976,-10.896 0,-6.576 -5.088,-11.28 -11.568,-11.28 -5.855,0 -10.416,4.32 -11.184,10.128 l 4.56,0.961 c -0.048,-3.985 3.12,-6.865 7.008,-6.865 3.888,0 6.673,3.264 6.673,7.056 0,3.888 -3.12,5.568 -6.241,6.864 l -2.496,1.056 c -4.128,1.776 -7.872,4.128 -7.872,9.168 0,5.856 5.184,9.361 10.656,9.361 4.032,0 7.344,-1.969 9.312,-5.472 l -3.6,-2.161 z"
           style="fill:#b5121b;fill-opacity:1;fill-rule:nonzero;stroke:none"
           id="path3256" /><path
           d="m 104.807,468.714 c -21.427,0 -38.859,17.432 -38.859,38.859 0,21.428 17.432,38.861 38.859,38.861 14.156,0 26.564,-7.612 33.358,-18.955 l 3.458,0 c -7.092,13.065 -20.935,21.955 -36.816,21.955 -23.081,0 -41.859,-18.779 -41.859,-41.861 0,-23.081 18.778,-41.859 41.859,-41.859 16.027,0 29.972,9.058 37.004,22.32 l -3.435,0 c -6.745,-11.543 -19.262,-19.32 -33.569,-19.32"
           style="fill:#808183;fill-opacity:1;fill-rule:nonzero;stroke:none"
           id="path3258" /><path
           d="m 99.746,473.774 c -18.636,0 -33.798,15.163 -33.798,33.799 0,18.637 15.162,33.799 33.798,33.799 11.199,0 21.138,-5.479 27.291,-13.893 l 3.634,0 c -6.558,10.153 -17.965,16.893 -30.925,16.893 -20.29,0 -36.798,-16.508 -36.798,-36.799 0,-20.291 16.508,-36.799 36.798,-36.799 13.116,0 24.643,6.903 31.161,17.26 l -3.608,0 c -6.132,-8.62 -16.193,-14.26 -27.553,-14.26"
           style="fill:#9c9ea0;fill-opacity:1;fill-rule:nonzero;stroke:none"
           id="path3260" /><path
           d="m 90.474,483.188 c -13.545,0 -24.564,11.019 -24.564,24.563 0,13.544 11.019,24.562 24.564,24.562 5.47,0 10.526,-1.798 14.613,-4.834 l 4.607,0 c -4.969,4.843 -11.75,7.834 -19.22,7.834 -15.199,0 -27.564,-12.364 -27.564,-27.562 0,-15.198 12.365,-27.563 27.564,-27.563 7.476,0 14.262,2.997 19.233,7.846 l -4.603,0 c -4.09,-3.042 -9.153,-4.846 -14.63,-4.846"
           style="fill:#bbbdbf;fill-opacity:1;fill-rule:nonzero;stroke:none"
           id="path3262" /></g></g><g
       id="bw_nolettering"
       inkscape:label="#g3264"><g
         id="g3266"
         clip-path="url(#clipPath3268)"><path
           d="m 386.521,518.854 c -2.591,2.303 -6.143,3.551 -9.55,3.551 -8.114,0 -14.305,-6.768 -14.305,-14.783 0,-7.921 6.145,-14.689 14.208,-14.689 3.552,0 6.96,1.344 9.647,3.744 l 0,-5.328 c -2.783,-1.632 -6.335,-2.544 -9.503,-2.544 -10.321,0 -18.864,8.208 -18.864,18.673 0,10.704 8.592,19.056 19.248,19.056 3.168,0 6.384,-0.768 9.119,-2.449 l 0,-5.231 z"
           style="fill:#000000;fill-opacity:1;fill-rule:nonzero;stroke:none"
           id="path3272" /><path
           d="m 413.258,511.173 0,14.593 4.512,0 0,-36.193 -4.512,0 0,17.376 -17.233,0 0,-17.376 -4.511,0 0,36.193 4.511,0 0,-14.593 17.233,0 z"
           style="fill:#000000;fill-opacity:1;fill-rule:nonzero;stroke:none"
           id="path3274" /><path
           d="m 428.665,489.573 -4.513,0 0,36.192 4.513,0 0,-36.192 z"
           style="fill:#000000;fill-opacity:1;fill-rule:nonzero;stroke:none"
           id="path3276" /><path
           d="m 461.785,518.854 c -2.592,2.303 -6.144,3.551 -9.553,3.551 -8.111,0 -14.303,-6.768 -14.303,-14.783 0,-7.921 6.143,-14.689 14.208,-14.689 3.551,0 6.96,1.344 9.648,3.744 l 0,-5.328 c -2.784,-1.632 -6.336,-2.544 -9.504,-2.544 -10.32,0 -18.865,8.208 -18.865,18.673 0,10.704 8.593,19.056 19.248,19.056 3.168,0 6.385,-0.768 9.121,-2.449 l 0,-5.231 z"
           style="fill:#000000;fill-opacity:1;fill-rule:nonzero;stroke:none"
           id="path3278" /><path
           d="m 480.6,517.414 -6.432,-14.641 12.864,0 -6.432,14.641 z m -8.303,-18.768 -4.129,-9.073 -4.848,0 17.28,37.729 17.281,-37.729 -4.849,0 -4.128,9.073 -16.607,0 z"
           style="fill:#000000;fill-opacity:1;fill-rule:nonzero;stroke:none"
           id="path3280" /><path
           d="m 516.983,518.901 c -1.344,2.256 -3.072,3.409 -5.807,3.409 -2.881,0 -6.049,-1.969 -6.049,-5.137 0,-2.832 2.784,-4.319 5.041,-5.184 l 2.592,-1.008 c 5.136,-2.016 8.975,-4.848 8.975,-10.896 0,-6.576 -5.088,-11.28 -11.567,-11.28 -5.856,0 -10.416,4.32 -11.185,10.128 l 4.56,0.961 c -0.048,-3.985 3.12,-6.865 7.008,-6.865 3.888,0 6.673,3.264 6.673,7.056 0,3.888 -3.12,5.568 -6.241,6.864 l -2.496,1.056 c -4.128,1.776 -7.872,4.128 -7.872,9.168 0,5.856 5.184,9.361 10.656,9.361 4.032,0 7.344,-1.969 9.313,-5.472 l -3.601,-2.161 z"
           style="fill:#000000;fill-opacity:1;fill-rule:nonzero;stroke:none"
           id="path3282" /><path
           d="m 391.307,468.714 c -21.427,0 -38.859,17.432 -38.859,38.859 0,21.428 17.432,38.861 38.859,38.861 14.156,0 26.564,-7.612 33.358,-18.955 l 3.458,0 c -7.092,13.065 -20.935,21.955 -36.816,21.955 -23.081,0 -41.859,-18.779 -41.859,-41.861 0,-23.081 18.778,-41.859 41.859,-41.859 16.027,0 29.972,9.058 37.004,22.32 l -3.435,0 c -6.745,-11.543 -19.263,-19.32 -33.569,-19.32"
           style="fill:#808183;fill-opacity:1;fill-rule:nonzero;stroke:none"
           id="path3284" /><path
           d="m 386.246,473.774 c -18.637,0 -33.798,15.163 -33.798,33.799 0,18.637 15.161,33.799 33.798,33.799 11.199,0 21.138,-5.479 27.291,-13.893 l 3.635,0 c -6.559,10.153 -17.967,16.893 -30.926,16.893 -20.291,0 -36.798,-16.508 -36.798,-36.799 0,-20.291 16.507,-36.799 36.798,-36.799 13.115,0 24.643,6.903 31.161,17.26 l -3.608,0 c -6.131,-8.62 -16.193,-14.26 -27.553,-14.26"
           style="fill:#9c9ea0;fill-opacity:1;fill-rule:nonzero;stroke:none"
           id="path3286" /><path
           d="m 376.974,483.188 c -13.544,0 -24.564,11.019 -24.564,24.563 0,13.544 11.02,24.562 24.564,24.562 5.469,0 10.526,-1.798 14.614,-4.834 l 4.606,0 c -4.969,4.843 -11.751,7.834 -19.22,7.834 -15.199,0 -27.564,-12.364 -27.564,-27.562 0,-15.198 12.365,-27.563 27.564,-27.563 7.475,0 14.262,2.997 19.233,7.846 l -4.603,0 c -4.09,-3.042 -9.153,-4.846 -14.63,-4.846"
           style="fill:#bbbdbf;fill-opacity:1;fill-rule:nonzero;stroke:none"
           id="path3288" /></g></g><g
       id="bw_lettering"
       inkscape:label="#g3290"><g
         id="g3292"
         clip-path="url(#clipPath3294)"><path
           d="m 481.008,661.093 c -0.397,0.451 -0.88,0.693 -1.474,0.693 -0.968,0 -1.716,-0.858 -1.716,-1.804 0,-1.056 0.737,-1.826 1.782,-1.826 0.572,0 1.034,0.264 1.408,0.682 l 0,-1.265 c -0.451,-0.242 -0.903,-0.341 -1.419,-0.341 -1.519,0 -2.761,1.166 -2.761,2.706 0,1.595 1.233,2.772 2.817,2.772 0.46,0 0.966,-0.109 1.363,-0.341 l 0,-1.276 z"
           style="fill:#231f20;fill-opacity:1;fill-rule:nonzero;stroke:none"
           id="path3298" /><path
           d="m 485.605,660.565 c -0.121,0.77 -0.626,1.288 -1.417,1.288 -0.771,0 -1.342,-0.551 -1.463,-1.288 l 2.88,0 z m -2.936,-0.748 c 0.011,-0.879 0.604,-1.705 1.552,-1.705 0.758,0 1.166,0.385 1.539,1.001 l 0.836,-0.472 c -0.485,-0.892 -1.386,-1.409 -2.387,-1.409 -1.572,0 -2.529,1.188 -2.529,2.706 0,1.584 0.845,2.772 2.508,2.772 1.638,0 2.408,-1.21 2.408,-2.739 l 0,-0.154 -3.927,0 z"
           style="fill:#231f20;fill-opacity:1;fill-rule:nonzero;stroke:none"
           id="path3300" /><path
           d="m 488.433,661.863 0.022,0 c 0.308,0.55 0.924,0.847 1.551,0.847 1.451,0 1.826,-0.979 1.826,-2.232 l 0,-3.07 -0.99,0 0,2.948 c 0,0.88 -0.121,1.474 -1.133,1.474 -1.276,0 -1.276,-1.122 -1.276,-2.057 l 0,-2.365 -0.99,0 0,5.149 0.99,0 0,-0.694 z"
           style="fill:#231f20;fill-opacity:1;fill-rule:nonzero;stroke:none"
           id="path3302" /><path
           d="m 494.328,657.408 -0.989,0 0,4.224 -0.539,0 0,0.925 0.539,0 0,1.968 0.989,0 0,-1.968 0.969,0 0,-0.925 -0.969,0 0,-4.224 z"
           style="fill:#231f20;fill-opacity:1;fill-rule:nonzero;stroke:none"
           id="path3304" /><path
           d="m 496.892,661.72 0.033,0 c 0.242,0.605 0.748,0.99 1.408,0.99 0.286,0 0.571,-0.099 0.813,-0.253 l -0.451,-0.902 c -0.175,0.154 -0.373,0.21 -0.604,0.21 -1.068,0 -1.199,-0.991 -1.199,-1.827 l 0,-2.53 -0.99,0 0,5.149 0.99,0 0,-0.837 z"
           style="fill:#231f20;fill-opacity:1;fill-rule:nonzero;stroke:none"
           id="path3306" /><path
           d="m 503.228,660.565 c -0.122,0.77 -0.627,1.288 -1.419,1.288 -0.77,0 -1.342,-0.551 -1.463,-1.288 l 2.882,0 z m -2.937,-0.748 c 0.011,-0.879 0.605,-1.705 1.551,-1.705 0.759,0 1.166,0.385 1.54,1.001 l 0.836,-0.472 c -0.485,-0.892 -1.386,-1.409 -2.388,-1.409 -1.572,0 -2.529,1.188 -2.529,2.706 0,1.584 0.846,2.772 2.508,2.772 1.638,0 2.409,-1.21 2.409,-2.739 l 0,-0.154 -3.927,0 z"
           style="fill:#231f20;fill-opacity:1;fill-rule:nonzero;stroke:none"
           id="path3308" /><path
           d="m 510.795,665.955 c -0.197,0.088 -0.45,0.209 -0.66,0.209 -0.703,0 -0.703,-0.891 -0.703,-1.396 l 0,-2.211 1.363,0 0,-0.925 -1.363,0 0,-4.224 -0.991,0 0,4.224 -0.451,0 0,0.925 0.451,0 0,2.507 c 0,1.123 0.385,2.024 1.662,2.024 0.242,0 0.473,-0.044 0.692,-0.132 l 0,-1.001 z"
           style="fill:#231f20;fill-opacity:1;fill-rule:nonzero;stroke:none"
           id="path3310" /><path
           d="m 511.797,659.971 c 0,-0.968 0.781,-1.793 1.76,-1.793 0.978,0 1.759,0.825 1.759,1.793 0,0.979 -0.781,1.794 -1.759,1.794 -0.979,0 -1.76,-0.815 -1.76,-1.794 m 4.51,0 c 0,-1.551 -1.211,-2.739 -2.75,-2.739 -1.54,0 -2.75,1.188 -2.75,2.739 0,1.551 1.21,2.739 2.75,2.739 1.539,0 2.75,-1.188 2.75,-2.739"
           style="fill:#231f20;fill-opacity:1;fill-rule:nonzero;stroke:none"
           id="path3312" /><path
           d="m 518.264,661.72 0.033,0 c 0.242,0.605 0.748,0.99 1.408,0.99 0.286,0 0.572,-0.099 0.815,-0.253 l -0.452,-0.902 c -0.175,0.154 -0.374,0.21 -0.605,0.21 -1.067,0 -1.199,-0.991 -1.199,-1.827 l 0,-2.53 -0.99,0 0,5.149 0.99,0 0,-0.837 z"
           style="fill:#231f20;fill-opacity:1;fill-rule:nonzero;stroke:none"
           id="path3314" /><path
           d="m 437.107,653.756 0,-5.093 0.022,0 c 0.309,0.55 0.925,0.847 1.552,0.847 1.452,0 1.825,-0.979 1.825,-2.233 l 0,-3.069 -0.989,0 0,2.948 c 0,0.88 -0.121,1.474 -1.134,1.474 -1.276,0 -1.276,-1.122 -1.276,-2.057 l 0,-2.365 -0.99,0 0,9.548 0.99,0 z"
           style="fill:#231f20;fill-opacity:1;fill-rule:nonzero;stroke:none"
           id="path3316" /><path
           d="m 445.401,647.365 c -0.121,0.77 -0.627,1.287 -1.419,1.287 -0.769,0 -1.341,-0.55 -1.462,-1.287 l 2.881,0 z m -2.936,-0.748 c 0.011,-0.88 0.604,-1.705 1.551,-1.705 0.758,0 1.166,0.385 1.54,1.001 l 0.836,-0.473 c -0.485,-0.891 -1.386,-1.408 -2.388,-1.408 -1.572,0 -2.529,1.188 -2.529,2.706 0,1.584 0.846,2.772 2.507,2.772 1.639,0 2.41,-1.21 2.41,-2.739 l 0,-0.154 -3.927,0 z"
           style="fill:#231f20;fill-opacity:1;fill-rule:nonzero;stroke:none"
           id="path3318" /><path
           d="m 451.133,646.782 c 0,1.001 -0.606,1.848 -1.673,1.848 -1.022,0 -1.628,-0.891 -1.628,-1.848 0,-0.968 0.583,-1.87 1.628,-1.87 1.078,0 1.673,0.858 1.673,1.87 m 0.933,-2.574 -0.989,0 0,0.803 -0.022,0 c -0.396,-0.583 -1.012,-0.979 -1.748,-0.979 -1.575,0 -2.465,1.309 -2.465,2.783 0,1.408 0.935,2.695 2.431,2.695 0.759,0 1.375,-0.396 1.782,-1.012 l 0.022,0 0,0.858 0.989,0 0,-5.148 z"
           style="fill:#231f20;fill-opacity:1;fill-rule:nonzero;stroke:none"
           id="path3320" /><path
           d="m 454.389,644.208 -0.99,0 0,9.548 0.99,0 0,-9.548 z"
           style="fill:#231f20;fill-opacity:1;fill-rule:nonzero;stroke:none"
           id="path3322" /><path
           d="m 456.93,644.208 -0.991,0 0,4.224 -0.539,0 0,0.924 0.539,0 0,1.969 0.991,0 0,-1.969 0.967,0 0,-0.924 -0.967,0 0,-4.224 z"
           style="fill:#231f20;fill-opacity:1;fill-rule:nonzero;stroke:none"
           id="path3324" /><path
           d="m 459.426,653.756 0,-5.093 0.021,0 c 0.309,0.55 0.925,0.847 1.552,0.847 1.452,0 1.825,-0.979 1.825,-2.233 l 0,-3.069 -0.989,0 0,2.948 c 0,0.88 -0.121,1.474 -1.134,1.474 -1.275,0 -1.275,-1.122 -1.275,-2.057 l 0,-2.365 -0.99,0 0,9.548 0.99,0 z"
           style="fill:#231f20;fill-opacity:1;fill-rule:nonzero;stroke:none"
           id="path3326" /><path
           d="m 468.578,644.208 -0.99,0 0,5.148 0.99,0 0,-5.148 z m 0.188,7.502 c 0,-0.374 -0.309,-0.671 -0.683,-0.671 -0.374,0 -0.683,0.297 -0.683,0.671 0,0.385 0.309,0.693 0.683,0.693 0.374,0 0.683,-0.308 0.683,-0.693"
           style="fill:#231f20;fill-opacity:1;fill-rule:nonzero;stroke:none"
           id="path3328" /><path
           d="m 471.152,648.663 0.022,0 c 0.308,0.55 0.924,0.847 1.551,0.847 1.452,0 1.826,-0.979 1.826,-2.233 l 0,-3.069 -0.99,0 0,2.948 c 0,0.88 -0.122,1.474 -1.133,1.474 -1.276,0 -1.276,-1.122 -1.276,-2.057 l 0,-2.365 -0.99,0 0,5.148 0.99,0 0,-0.693 z"
           style="fill:#231f20;fill-opacity:1;fill-rule:nonzero;stroke:none"
           id="path3330" /><path
           d="m 478.467,652.755 c -0.197,0.088 -0.451,0.209 -0.66,0.209 -0.703,0 -0.703,-0.891 -0.703,-1.397 l 0,-2.211 1.363,0 0,-0.924 -1.363,0 0,-4.224 -0.991,0 0,4.224 -0.451,0 0,0.924 0.451,0 0,2.508 c 0,1.122 0.385,2.024 1.66,2.024 0.243,0 0.474,-0.044 0.694,-0.132 l 0,-1.001 z"
           style="fill:#231f20;fill-opacity:1;fill-rule:nonzero;stroke:none"
           id="path3332" /><path
           d="m 479.468,646.771 c 0,-0.968 0.781,-1.793 1.761,-1.793 0.978,0 1.759,0.825 1.759,1.793 0,0.979 -0.781,1.793 -1.759,1.793 -0.98,0 -1.761,-0.814 -1.761,-1.793 m 4.51,0 c 0,-1.551 -1.21,-2.739 -2.749,-2.739 -1.541,0 -2.75,1.188 -2.75,2.739 0,1.551 1.209,2.739 2.75,2.739 1.539,0 2.749,-1.188 2.749,-2.739"
           style="fill:#231f20;fill-opacity:1;fill-rule:nonzero;stroke:none"
           id="path3334" /><path
           d="m 485.936,648.52 0.033,0 c 0.242,0.605 0.748,0.99 1.408,0.99 0.285,0 0.572,-0.099 0.814,-0.253 l -0.451,-0.902 c -0.176,0.154 -0.375,0.209 -0.605,0.209 -1.067,0 -1.199,-0.99 -1.199,-1.826 l 0,-2.53 -0.991,0 0,5.148 0.991,0 0,-0.836 z"
           style="fill:#231f20;fill-opacity:1;fill-rule:nonzero;stroke:none"
           id="path3336" /><path
           d="m 489.785,648.707 0.023,0 c 0.286,0.451 0.802,0.803 1.364,0.803 0.67,0 1.154,-0.341 1.484,-0.913 0.32,0.549 0.936,0.913 1.584,0.913 1.354,0 1.705,-1.056 1.705,-2.222 l 0,-3.08 -0.99,0 0,2.915 c 0,0.66 -0.088,1.507 -0.957,1.507 -1.056,0 -1.133,-1.1 -1.133,-1.892 l 0,-2.53 -0.99,0 0,2.728 c 0,0.671 -0.033,1.694 -0.945,1.694 -1.057,0 -1.145,-1.089 -1.145,-1.892 l 0,-2.53 -0.99,0 0,5.148 0.99,0 0,-0.649 z"
           style="fill:#231f20;fill-opacity:1;fill-rule:nonzero;stroke:none"
           id="path3338" /><path
           d="m 501.16,646.782 c 0,1.001 -0.605,1.848 -1.673,1.848 -1.022,0 -1.628,-0.891 -1.628,-1.848 0,-0.968 0.583,-1.87 1.628,-1.87 1.078,0 1.673,0.858 1.673,1.87 m 0.934,-2.574 -0.99,0 0,0.803 -0.022,0 c -0.395,-0.583 -1.012,-0.979 -1.748,-0.979 -1.574,0 -2.465,1.309 -2.465,2.783 0,1.408 0.936,2.695 2.432,2.695 0.759,0 1.375,-0.396 1.781,-1.012 l 0.022,0 0,0.858 0.99,0 0,-5.148 z"
           style="fill:#231f20;fill-opacity:1;fill-rule:nonzero;stroke:none"
           id="path3340" /><path
           d="m 504.515,644.208 -0.99,0 0,4.224 -0.539,0 0,0.924 0.539,0 0,1.969 0.99,0 0,-1.969 0.967,0 0,-0.924 -0.967,0 0,-4.224 z"
           style="fill:#231f20;fill-opacity:1;fill-rule:nonzero;stroke:none"
           id="path3342" /><path
           d="m 507.231,644.208 -0.99,0 0,5.148 0.99,0 0,-5.148 z m 0.187,7.502 c 0,-0.374 -0.308,-0.671 -0.682,-0.671 -0.374,0 -0.681,0.297 -0.681,0.671 0,0.385 0.307,0.693 0.681,0.693 0.374,0 0.682,-0.308 0.682,-0.693"
           style="fill:#231f20;fill-opacity:1;fill-rule:nonzero;stroke:none"
           id="path3344" /><path
           d="m 512.6,647.893 c -0.397,0.451 -0.881,0.693 -1.475,0.693 -0.968,0 -1.716,-0.858 -1.716,-1.804 0,-1.056 0.737,-1.826 1.782,-1.826 0.573,0 1.034,0.264 1.409,0.682 l 0,-1.265 c -0.452,-0.242 -0.903,-0.341 -1.42,-0.341 -1.518,0 -2.76,1.166 -2.76,2.706 0,1.595 1.231,2.772 2.815,2.772 0.462,0 0.968,-0.11 1.365,-0.341 l 0,-1.276 z"
           style="fill:#231f20;fill-opacity:1;fill-rule:nonzero;stroke:none"
           id="path3346" /><path
           d="m 515.734,648.179 c -0.121,0.253 -0.374,0.451 -0.66,0.451 -0.275,0 -0.539,-0.22 -0.539,-0.506 0,-0.451 0.594,-0.649 1.199,-0.924 0.606,-0.275 1.188,-0.649 1.188,-1.463 0,-0.979 -0.814,-1.705 -1.771,-1.705 -0.748,0 -1.506,0.429 -1.782,1.156 l 0.848,0.384 c 0.209,-0.384 0.461,-0.66 0.934,-0.66 0.418,0 0.781,0.286 0.781,0.726 0,0.275 -0.131,0.407 -0.363,0.561 l -0.967,0.517 c -0.573,0.308 -0.991,0.594 -0.991,1.298 0,0.836 0.682,1.496 1.518,1.496 0.627,0 1.133,-0.341 1.408,-0.902 l -0.803,-0.429 z"
           style="fill:#231f20;fill-opacity:1;fill-rule:nonzero;stroke:none"
           id="path3348" /><path
           d="m 519.871,645.176 -1.463,-2.937 -0.605,0.253 1.21,3.025 0.858,-0.341 z"
           style="fill:#231f20;fill-opacity:1;fill-rule:nonzero;stroke:none"
           id="path3350" /><path
           d="m 411.918,634.692 c -0.397,0.452 -0.88,0.694 -1.474,0.694 -0.967,0 -1.715,-0.859 -1.715,-1.804 0,-1.057 0.736,-1.826 1.781,-1.826 0.572,0 1.034,0.264 1.408,0.682 l 0,-1.265 c -0.451,-0.242 -0.902,-0.341 -1.419,-0.341 -1.519,0 -2.761,1.166 -2.761,2.706 0,1.595 1.233,2.772 2.817,2.772 0.461,0 0.966,-0.11 1.363,-0.341 l 0,-1.277 z"
           style="fill:#231f20;fill-opacity:1;fill-rule:nonzero;stroke:none"
           id="path3352" /><path
           d="m 413.514,633.57 c 0,-0.967 0.781,-1.793 1.759,-1.793 0.979,0 1.76,0.826 1.76,1.793 0,0.98 -0.781,1.794 -1.76,1.794 -0.978,0 -1.759,-0.814 -1.759,-1.794 m 4.509,0 c 0,-1.55 -1.21,-2.738 -2.75,-2.738 -1.54,0 -2.75,1.188 -2.75,2.738 0,1.552 1.21,2.74 2.75,2.74 1.54,0 2.75,-1.188 2.75,-2.74"
           style="fill:#231f20;fill-opacity:1;fill-rule:nonzero;stroke:none"
           id="path3354" /><path
           d="m 419.883,635.507 0.021,0 c 0.285,0.451 0.803,0.803 1.364,0.803 0.671,0 1.156,-0.341 1.485,-0.914 0.319,0.551 0.935,0.914 1.584,0.914 1.352,0 1.705,-1.056 1.705,-2.222 l 0,-3.08 -0.989,0 0,2.915 c 0,0.66 -0.088,1.507 -0.957,1.507 -1.057,0 -1.134,-1.1 -1.134,-1.892 l 0,-2.53 -0.989,0 0,2.727 c 0,0.672 -0.034,1.695 -0.947,1.695 -1.055,0 -1.143,-1.089 -1.143,-1.892 l 0,-2.53 -0.99,0 0,5.148 0.99,0 0,-0.649 z"
           style="fill:#231f20;fill-opacity:1;fill-rule:nonzero;stroke:none"
           id="path3356" /><path
           d="m 431.52,633.582 c 0,1.001 -0.605,1.848 -1.672,1.848 -1.023,0 -1.627,-0.891 -1.627,-1.848 0,-0.968 0.582,-1.87 1.627,-1.87 1.078,0 1.672,0.857 1.672,1.87 m -3.245,1.716 0.022,0 c 0.407,0.616 1.023,1.012 1.793,1.012 1.485,0 2.42,-1.288 2.42,-2.695 0,-1.474 -0.879,-2.783 -2.463,-2.783 -0.727,0 -1.354,0.396 -1.75,0.979 l -0.022,0 0,-3.751 -0.99,0 0,8.096 0.99,0 0,-0.858 z"
           style="fill:#231f20;fill-opacity:1;fill-rule:nonzero;stroke:none"
           id="path3358" /><path
           d="m 434.424,636.156 0,-2.849 c 0,-0.826 0.209,-1.551 1.187,-1.551 0.98,0 1.189,0.725 1.189,1.551 l 0,2.849 0.99,0 0,-2.959 c 0,-1.408 -0.66,-2.365 -2.179,-2.365 -1.517,0 -2.177,0.957 -2.177,2.365 l 0,2.959 0.99,0 z"
           style="fill:#231f20;fill-opacity:1;fill-rule:nonzero;stroke:none"
           id="path3360" /><path
           d="m 440.242,631.008 -0.989,0 0,4.223 -0.539,0 0,0.925 0.539,0 0,1.969 0.989,0 0,-1.969 0.969,0 0,-0.925 -0.969,0 0,-4.223 z"
           style="fill:#231f20;fill-opacity:1;fill-rule:nonzero;stroke:none"
           id="path3362" /><path
           d="m 442.96,631.008 -0.99,0 0,5.148 0.99,0 0,-5.148 z m 0.186,7.502 c 0,-0.374 -0.307,-0.671 -0.681,-0.671 -0.374,0 -0.682,0.297 -0.682,0.671 0,0.385 0.308,0.693 0.682,0.693 0.374,0 0.681,-0.308 0.681,-0.693"
           style="fill:#231f20;fill-opacity:1;fill-rule:nonzero;stroke:none"
           id="path3364" /><path
           d="m 445.533,635.463 0.023,0 c 0.307,0.55 0.924,0.847 1.551,0.847 1.452,0 1.826,-0.979 1.826,-2.233 l 0,-3.069 -0.99,0 0,2.948 c 0,0.88 -0.121,1.474 -1.133,1.474 -1.277,0 -1.277,-1.122 -1.277,-2.057 l 0,-2.365 -0.989,0 0,5.148 0.989,0 0,-0.693 z"
           style="fill:#231f20;fill-opacity:1;fill-rule:nonzero;stroke:none"
           id="path3366" /><path
           d="m 454.18,633.582 c 0,1.001 -0.606,1.848 -1.672,1.848 -1.024,0 -1.628,-0.891 -1.628,-1.848 0,-0.968 0.583,-1.87 1.628,-1.87 1.078,0 1.672,0.857 1.672,1.87 m 0.935,-2.476 c 0,-1.77 -0.506,-3.046 -2.508,-3.046 -1.43,0 -2.464,0.879 -2.486,2.332 l 0.99,0 c 0,-0.924 0.637,-1.453 1.539,-1.453 1.221,0 1.475,0.836 1.475,1.893 l 0,0.979 -0.022,0 c -0.396,-0.583 -1.023,-0.979 -1.749,-0.979 -1.584,0 -2.464,1.309 -2.464,2.783 0,1.407 0.934,2.695 2.42,2.695 0.77,0 1.385,-0.396 1.793,-1.035 l 0.022,0 0,0.881 0.99,0 0,-5.05 z"
           style="fill:#231f20;fill-opacity:1;fill-rule:nonzero;stroke:none"
           id="path3368" /><path
           d="m 458.382,631.976 -1.463,-2.937 -0.605,0.253 1.209,3.024 0.859,-0.34 z"
           style="fill:#231f20;fill-opacity:1;fill-rule:nonzero;stroke:none"
           id="path3370" /><path
           d="m 466.653,633.582 c 0,1.001 -0.604,1.848 -1.673,1.848 -1.022,0 -1.626,-0.891 -1.626,-1.848 0,-0.968 0.582,-1.87 1.626,-1.87 1.079,0 1.673,0.857 1.673,1.87 m 0.935,-2.574 -0.99,0 0,0.803 -0.022,0 c -0.396,-0.583 -1.012,-0.979 -1.749,-0.979 -1.573,0 -2.464,1.309 -2.464,2.783 0,1.407 0.936,2.695 2.431,2.695 0.759,0 1.375,-0.396 1.782,-1.012 l 0.022,0 0,0.858 0.99,0 0,-5.148 z"
           style="fill:#231f20;fill-opacity:1;fill-rule:nonzero;stroke:none"
           id="path3372" /><path
           d="m 469.865,635.463 0.022,0 c 0.308,0.55 0.925,0.847 1.551,0.847 1.453,0 1.826,-0.979 1.826,-2.233 l 0,-3.069 -0.99,0 0,2.948 c 0,0.88 -0.121,1.474 -1.133,1.474 -1.276,0 -1.276,-1.122 -1.276,-2.057 l 0,-2.365 -0.99,0 0,5.148 0.99,0 0,-0.693 z"
           style="fill:#231f20;fill-opacity:1;fill-rule:nonzero;stroke:none"
           id="path3374" /><path
           d="m 478.522,633.582 c 0,1.001 -0.604,1.848 -1.672,1.848 -1.023,0 -1.627,-0.891 -1.627,-1.848 0,-0.968 0.582,-1.87 1.627,-1.87 1.078,0 1.672,0.857 1.672,1.87 m -0.055,-1.771 -0.022,0 c -0.396,-0.583 -1.023,-0.979 -1.749,-0.979 -1.584,0 -2.464,1.309 -2.464,2.783 0,1.407 0.936,2.695 2.42,2.695 0.77,0 1.386,-0.396 1.793,-1.012 l 0.022,0 0,5.258 0.99,0 0,-9.548 -0.99,0 0,0.803 z"
           style="fill:#231f20;fill-opacity:1;fill-rule:nonzero;stroke:none"
           id="path3376" /><path
           d="m 485.991,634.979 c -0.121,0.252 -0.374,0.451 -0.66,0.451 -0.274,0 -0.539,-0.22 -0.539,-0.506 0,-0.451 0.595,-0.65 1.199,-0.924 0.605,-0.275 1.189,-0.649 1.189,-1.463 0,-0.979 -0.815,-1.705 -1.772,-1.705 -0.748,0 -1.507,0.429 -1.782,1.154 l 0.847,0.386 c 0.209,-0.386 0.463,-0.66 0.935,-0.66 0.418,0 0.781,0.286 0.781,0.726 0,0.275 -0.132,0.407 -0.363,0.561 l -0.968,0.517 c -0.572,0.308 -0.99,0.593 -0.99,1.297 0,0.836 0.683,1.497 1.519,1.497 0.627,0 1.133,-0.341 1.407,-0.902 l -0.803,-0.429 z"
           style="fill:#231f20;fill-opacity:1;fill-rule:nonzero;stroke:none"
           id="path3378" /><path
           d="m 489.279,631.008 -0.989,0 0,4.223 -0.539,0 0,0.925 0.539,0 0,1.969 0.989,0 0,-1.969 0.969,0 0,-0.925 -0.969,0 0,-4.223 z"
           style="fill:#231f20;fill-opacity:1;fill-rule:nonzero;stroke:none"
           id="path3380" /><path
           d="m 494.682,633.582 c 0,1.001 -0.606,1.848 -1.673,1.848 -1.023,0 -1.628,-0.891 -1.628,-1.848 0,-0.968 0.583,-1.87 1.628,-1.87 1.078,0 1.673,0.857 1.673,1.87 m 0.933,-2.574 -0.989,0 0,0.803 -0.022,0 c -0.396,-0.583 -1.012,-0.979 -1.749,-0.979 -1.574,0 -2.464,1.309 -2.464,2.783 0,1.407 0.935,2.695 2.431,2.695 0.759,0 1.375,-0.396 1.782,-1.012 l 0.022,0 0,0.858 0.989,0 0,-5.148 z"
           style="fill:#231f20;fill-opacity:1;fill-rule:nonzero;stroke:none"
           id="path3382" /><path
           d="m 498.035,631.008 -0.989,0 0,4.223 -0.539,0 0,0.925 0.539,0 0,1.969 0.989,0 0,-1.969 0.969,0 0,-0.925 -0.969,0 0,-4.223 z"
           style="fill:#231f20;fill-opacity:1;fill-rule:nonzero;stroke:none"
           id="path3384" /><path
           d="m 500.753,631.008 -0.99,0 0,5.148 0.99,0 0,-5.148 z m 0.186,7.502 c 0,-0.374 -0.307,-0.671 -0.681,-0.671 -0.374,0 -0.682,0.297 -0.682,0.671 0,0.385 0.308,0.693 0.682,0.693 0.374,0 0.681,-0.308 0.681,-0.693"
           style="fill:#231f20;fill-opacity:1;fill-rule:nonzero;stroke:none"
           id="path3386" /><path
           d="m 504.404,634.979 c -0.121,0.252 -0.373,0.451 -0.66,0.451 -0.274,0 -0.539,-0.22 -0.539,-0.506 0,-0.451 0.595,-0.65 1.199,-0.924 0.606,-0.275 1.189,-0.649 1.189,-1.463 0,-0.979 -0.814,-1.705 -1.771,-1.705 -0.748,0 -1.508,0.429 -1.783,1.154 l 0.848,0.386 c 0.209,-0.386 0.462,-0.66 0.935,-0.66 0.418,0 0.781,0.286 0.781,0.726 0,0.275 -0.132,0.407 -0.363,0.561 l -0.969,0.517 c -0.572,0.308 -0.99,0.593 -0.99,1.297 0,0.836 0.683,1.497 1.519,1.497 0.627,0 1.133,-0.341 1.407,-0.902 l -0.803,-0.429 z"
           style="fill:#231f20;fill-opacity:1;fill-rule:nonzero;stroke:none"
           id="path3388" /><path
           d="m 507.693,631.008 -0.99,0 0,4.223 -0.539,0 0,0.925 0.539,0 0,1.969 0.99,0 0,-1.969 0.969,0 0,-0.925 -0.969,0 0,-4.223 z"
           style="fill:#231f20;fill-opacity:1;fill-rule:nonzero;stroke:none"
           id="path3390" /><path
           d="m 510.41,631.008 -0.99,0 0,5.148 0.99,0 0,-5.148 z m 0.188,7.502 c 0,-0.374 -0.309,-0.671 -0.682,-0.671 -0.375,0 -0.683,0.297 -0.683,0.671 0,0.385 0.308,0.693 0.683,0.693 0.373,0 0.682,-0.308 0.682,-0.693"
           style="fill:#231f20;fill-opacity:1;fill-rule:nonzero;stroke:none"
           id="path3392" /><path
           d="m 515.778,634.692 c -0.395,0.452 -0.88,0.694 -1.473,0.694 -0.969,0 -1.717,-0.859 -1.717,-1.804 0,-1.057 0.738,-1.826 1.783,-1.826 0.571,0 1.033,0.264 1.407,0.682 l 0,-1.265 c -0.45,-0.242 -0.901,-0.341 -1.419,-0.341 -1.517,0 -2.76,1.166 -2.76,2.706 0,1.595 1.231,2.772 2.815,2.772 0.463,0 0.969,-0.11 1.364,-0.341 l 0,-1.277 z"
           style="fill:#231f20;fill-opacity:1;fill-rule:nonzero;stroke:none"
           id="path3394" /><path
           d="m 518.914,634.979 c -0.121,0.252 -0.375,0.451 -0.66,0.451 -0.275,0 -0.539,-0.22 -0.539,-0.506 0,-0.451 0.594,-0.65 1.199,-0.924 0.605,-0.275 1.188,-0.649 1.188,-1.463 0,-0.979 -0.815,-1.705 -1.772,-1.705 -0.748,0 -1.506,0.429 -1.781,1.154 l 0.847,0.386 c 0.208,-0.386 0.461,-0.66 0.934,-0.66 0.418,0 0.781,0.286 0.781,0.726 0,0.275 -0.132,0.407 -0.363,0.561 l -0.967,0.517 c -0.572,0.308 -0.99,0.593 -0.99,1.297 0,0.836 0.682,1.497 1.518,1.497 0.627,0 1.132,-0.341 1.408,-0.902 l -0.803,-0.429 z"
           style="fill:#231f20;fill-opacity:1;fill-rule:nonzero;stroke:none"
           id="path3396" /><path
           d="m 386.521,701.854 c -2.591,2.303 -6.143,3.551 -9.55,3.551 -8.114,0 -14.305,-6.768 -14.305,-14.783 0,-7.921 6.145,-14.689 14.208,-14.689 3.552,0 6.96,1.344 9.647,3.744 l 0,-5.328 c -2.783,-1.632 -6.335,-2.544 -9.503,-2.544 -10.321,0 -18.864,8.208 -18.864,18.673 0,10.704 8.592,19.056 19.248,19.056 3.168,0 6.384,-0.768 9.119,-2.449 l 0,-5.231 z"
           style="fill:#000000;fill-opacity:1;fill-rule:nonzero;stroke:none"
           id="path3398" /><path
           d="m 413.258,694.173 0,14.593 4.512,0 0,-36.193 -4.512,0 0,17.376 -17.233,0 0,-17.376 -4.511,0 0,36.193 4.511,0 0,-14.593 17.233,0 z"
           style="fill:#000000;fill-opacity:1;fill-rule:nonzero;stroke:none"
           id="path3400" /><path
           d="m 428.665,672.573 -4.513,0 0,36.192 4.513,0 0,-36.192 z"
           style="fill:#000000;fill-opacity:1;fill-rule:nonzero;stroke:none"
           id="path3402" /><path
           d="m 461.785,701.854 c -2.592,2.303 -6.144,3.551 -9.553,3.551 -8.111,0 -14.303,-6.768 -14.303,-14.783 0,-7.921 6.143,-14.689 14.208,-14.689 3.551,0 6.96,1.344 9.648,3.744 l 0,-5.328 c -2.784,-1.632 -6.336,-2.544 -9.504,-2.544 -10.32,0 -18.865,8.208 -18.865,18.673 0,10.704 8.593,19.056 19.248,19.056 3.168,0 6.385,-0.768 9.121,-2.449 l 0,-5.231 z"
           style="fill:#000000;fill-opacity:1;fill-rule:nonzero;stroke:none"
           id="path3404" /><path
           d="m 480.601,700.414 -6.433,-14.641 12.865,0 -6.432,14.641 z m -8.304,-18.768 -4.129,-9.073 -4.848,0 17.281,37.729 17.28,-37.729 -4.848,0 -4.129,9.073 -16.607,0 z"
           style="fill:#000000;fill-opacity:1;fill-rule:nonzero;stroke:none"
           id="path3406" /><path
           d="m 516.984,701.901 c -1.343,2.256 -3.072,3.409 -5.808,3.409 -2.879,0 -6.047,-1.969 -6.047,-5.137 0,-2.832 2.783,-4.319 5.039,-5.184 l 2.592,-1.008 c 5.136,-2.016 8.976,-4.848 8.976,-10.896 0,-6.576 -5.088,-11.28 -11.568,-11.28 -5.855,0 -10.416,4.32 -11.184,10.128 l 4.561,0.961 c -0.049,-3.985 3.119,-6.865 7.008,-6.865 3.887,0 6.672,3.264 6.672,7.056 0,3.888 -3.121,5.568 -6.241,6.864 l -2.496,1.056 c -4.128,1.776 -7.872,4.128 -7.872,9.168 0,5.856 5.185,9.361 10.656,9.361 4.033,0 7.344,-1.969 9.312,-5.472 l -3.6,-2.161 z"
           style="fill:#000000;fill-opacity:1;fill-rule:nonzero;stroke:none"
           id="path3408" /><path
           d="m 391.307,651.714 c -21.427,0 -38.859,17.432 -38.859,38.859 0,21.428 17.432,38.861 38.859,38.861 14.156,0 26.564,-7.612 33.358,-18.955 l 3.458,0 c -7.092,13.065 -20.935,21.955 -36.816,21.955 -23.081,0 -41.859,-18.779 -41.859,-41.861 0,-23.081 18.778,-41.859 41.859,-41.859 16.027,0 29.972,9.058 37.004,22.32 l -3.435,0 c -6.745,-11.543 -19.263,-19.32 -33.569,-19.32"
           style="fill:#808183;fill-opacity:1;fill-rule:nonzero;stroke:none"
           id="path3410" /><path
           d="m 386.246,656.774 c -18.637,0 -33.798,15.163 -33.798,33.799 0,18.637 15.161,33.799 33.798,33.799 11.199,0 21.138,-5.479 27.291,-13.893 l 3.635,0 c -6.559,10.153 -17.967,16.893 -30.926,16.893 -20.291,0 -36.798,-16.508 -36.798,-36.799 0,-20.291 16.507,-36.799 36.798,-36.799 13.115,0 24.643,6.903 31.161,17.26 l -3.608,0 c -6.131,-8.62 -16.193,-14.26 -27.553,-14.26"
           style="fill:#9c9ea0;fill-opacity:1;fill-rule:nonzero;stroke:none"
           id="path3412" /><path
           d="m 376.974,666.188 c -13.544,0 -24.564,11.019 -24.564,24.563 0,13.544 11.02,24.562 24.564,24.562 5.469,0 10.526,-1.798 14.614,-4.834 l 4.606,0 c -4.969,4.843 -11.751,7.834 -19.22,7.834 -15.199,0 -27.564,-12.364 -27.564,-27.562 0,-15.198 12.365,-27.563 27.564,-27.563 7.475,0 14.262,2.997 19.233,7.846 l -4.603,0 c -4.09,-3.042 -9.153,-4.846 -14.63,-4.846"
           style="fill:#bbbdbf;fill-opacity:1;fill-rule:nonzero;stroke:none"
           id="path3414" /></g></g><g
       id="square"
       transform="translate(31.043143,243.37824)"
       inkscape:label="#g3661"><path
         id="path3220-8"
         style="fill:#b5121b;fill-opacity:1;fill-rule:nonzero;stroke:none"
         d="m 269.42243,358.96317 c -2.592,2.303 -6.144,3.551 -9.552,3.551 -8.112,0 -14.304,-6.768 -14.304,-14.783 0,-7.921 6.144,-14.689 14.208,-14.689 3.552,0 6.96,1.344 9.648,3.744 l 0,-5.328 c -2.784,-1.632 -6.336,-2.544 -9.504,-2.544 -10.32,0 -18.864,8.208 -18.864,18.673 0,10.704 8.592,19.056 19.248,19.056 3.168,0 6.384,-0.768 9.12,-2.449 l 0,-5.231 z"
         inkscape:connector-curvature="0" /><path
         id="path3222-4"
         style="fill:#b5121b;fill-opacity:1;fill-rule:nonzero;stroke:none"
         d="m 296.15843,351.28217 0,14.593 4.512,0 0,-36.193 -4.512,0 0,17.376 -17.233,0 0,-17.376 -4.511,0 0,36.193 4.511,0 0,-14.593 17.233,0 z"
         inkscape:connector-curvature="0" /><path
         id="path3224-0"
         style="fill:#b5121b;fill-opacity:1;fill-rule:nonzero;stroke:none"
         d="m 311.56543,329.68217 -4.512,0 0,36.192 4.512,0 0,-36.192 z"
         inkscape:connector-curvature="0" /><path
         id="path3232-6"
         style="fill:#808183;fill-opacity:1;fill-rule:nonzero;stroke:none"
         d="m 274.20743,308.82317 c -21.427,0 -38.859,17.432 -38.859,38.859 0,21.428 17.432,38.861 38.859,38.861 14.156,0 26.564,-7.612 33.358,-18.955 l 3.458,0 c -7.092,13.065 -20.935,21.955 -36.816,21.955 -23.081,0 -41.859,-18.779 -41.859,-41.861 0,-23.081 18.778,-41.859 41.859,-41.859 16.027,0 29.973,9.058 37.004,22.32 l -3.435,0 c -6.745,-11.543 -19.262,-19.32 -33.569,-19.32"
         inkscape:connector-curvature="0" /><path
         id="path3234-3"
         style="fill:#9c9ea0;fill-opacity:1;fill-rule:nonzero;stroke:none"
         d="m 269.14643,313.88317 c -18.636,0 -33.798,15.163 -33.798,33.799 0,18.637 15.162,33.799 33.798,33.799 11.199,0 21.138,-5.479 27.291,-13.893 l 3.634,0 c -6.558,10.153 -17.965,16.893 -30.925,16.893 -20.29,0 -36.798,-16.508 -36.798,-36.799 0,-20.291 16.508,-36.799 36.798,-36.799 13.116,0 24.643,6.903 31.161,17.26 l -3.608,0 c -6.132,-8.62 -16.193,-14.26 -27.553,-14.26"
         inkscape:connector-curvature="0" /><path
         id="path3236-9"
         style="fill:#bbbdbf;fill-opacity:1;fill-rule:nonzero;stroke:none"
         d="m 259.87443,323.29717 c -13.545,0 -24.564,11.019 -24.564,24.563 0,13.544 11.019,24.562 24.564,24.562 5.47,0 10.526,-1.798 14.613,-4.834 l 4.607,0 c -4.969,4.843 -11.75,7.834 -19.22,7.834 -15.199,0 -27.564,-12.364 -27.564,-27.562 0,-15.198 12.365,-27.563 27.564,-27.563 7.476,0 14.262,2.997 19.233,7.846 l -4.603,0 c -4.09,-3.042 -9.153,-4.846 -14.63,-4.846"
         inkscape:connector-curvature="0" /></g></g></svg>